<?xml version="1.0" encoding="UTF-8" standalone="no"?>
<!-- Copied from src/assets/logo_coloreado.svg for favicon usage -->
<svg
   width="210mm"
   height="297mm"
   viewBox="0 0 210 297"
   version="1.1"
   xmlns="http://www.w3.org/2000/svg">
  <defs>
    <linearGradient id="g1" x1="90.563" y1="223.567" x2="89.300" y2="112.415" gradientUnits="userSpaceOnUse">
      <stop offset="0" stop-color="#008600"/>
      <stop offset="1" stop-color="#00cf00"/>
    </linearGradient>
    <linearGradient id="g2" x1="6764.5" y1="2565.086" x2="6764.5" y2="4337.859" gradientUnits="userSpaceOnUse">
      <stop offset="0" stop-color="#009900"/>
      <stop offset="1" stop-color="#05f703"/>
    </linearGradient>
    <linearGradient id="g3" x1="6770" y1="2868.905" x2="1350" y2="2868.905" gradientUnits="userSpaceOnUse">
      <stop offset="0" stop-color="#ffa900"/>
      <stop offset="1" stop-color="#f9fc00"/>
    </linearGradient>
  </defs>
  <path fill="url(#g1)" d="m 41.176701,164.95942 28.293195,-24.2513 17.178009,-34.60864 16.672775,9.34685 10.35733,26.52488 30.81937,18.18848 -0.25262,15.6623 -4.04188,16.92539 -5.55759,10.10471 -4.04189,14.65184 -1.76832,15.15707 -36.376964,0.50523 -38.145289,-7.83115 -17.683247,-6.06283 z"/>
  <g transform="matrix(0.0303724,0,0,-0.03062487,-31.276884,247.52519)">
    <path d="m 3975,5406 c -28,-14 -74,-45 -102,-68 -28,-24 -92,-77 -143,-118 -173,-141 -425,-349 -495,-410 -67,-58 -192,-162 -264,-220 -31,-25 -68,-55 -81,-67 -93,-80 -338,-286 -579,-487 -280,-233 -396,-330 -401,-335 -3,-4 -30,-26 -60,-51 -30,-25 -57,-47 -60,-50 -3,-3 -68,-57 -145,-120 -260,-212 -295,-251 -295,-330 0,-26 5,-62 11,-81 15,-44 74,-106 113,-118 17,-5 153,-11 303,-13 247,-4 274,-6 292,-22 20,-19 21,-28 23,-1025 l 3,-1006 27,-55 c 35,-71 115,-160 175,-195 95,-56 147,-66 403,-71 l 235,-6 85,-35 c 177,-75 309,-120 477,-162 203,-51 309,-56 1013,-44 l 625,10 77,33 c 107,47 168,103 215,198 32,64 39,88 41,151 3,54 -1,89 -13,121 -33,88 -32,94 23,158 27,31 64,85 81,119 37,72 62,200 50,253 -5,19 -9,55 -9,78 0,39 6,50 54,104 61,67 116,172 141,267 13,52 15,85 9,160 -10,122 -9,126 31,186 108,163 141,294 161,640 3,66 11,126 16,133 8,9 81,12 303,12 311,0 339,3 388,49 35,32 67,103 67,145 -1,62 -34,99 -231,262 -251,207 -310,257 -439,364 -76,63 -171,142 -211,175 -119,98 -109,43 -109,621 v 501 l -22,20 c -51,46 -60,48 -328,47 -252,0 -256,0 -300,-25 -24,-13 -55,-39 -67,-58 -22,-32 -23,-44 -23,-196 0,-199 -3,-205 -82,-147 -55,41 -210,175 -314,271 -33,31 -136,121 -228,201 -304,262 -345,284 -441,236 z m 115,-1154 c 68,-32 167,-132 222,-224 64,-108 89,-201 95,-353 9,-223 -34,-417 -141,-647 -33,-70 -46,-110 -46,-142 0,-80 -41,-76 712,-76 641,0 664,-1 695,-20 42,-25 90,-92 104,-144 24,-90 -14,-222 -82,-280 -76,-65 -88,-66 -616,-66 -396,0 -479,-2 -502,-15 -47,-24 -56,-78 -18,-112 49,-45 48,-45 505,-42 288,1 446,-2 463,-9 41,-17 87,-80 99,-136 21,-101 -24,-216 -100,-260 -34,-20 -54,-21 -510,-26 -438,-5 -477,-6 -502,-23 -37,-26 -45,-69 -19,-110 11,-19 32,-39 46,-45 18,-9 129,-12 373,-12 370,0 408,-4 454,-47 30,-29 58,-100 58,-148 0,-58 -29,-123 -70,-155 l -38,-30 h -459 -460 l -34,-23 c -28,-19 -35,-30 -37,-64 -4,-51 9,-78 51,-103 30,-19 53,-20 416,-20 h 384 l 34,-26 c 45,-34 63,-73 63,-136 0,-65 -21,-102 -80,-143 l -43,-30 h -691 c -760,0 -677,-5 -881,56 -94,28 -232,87 -404,173 l -185,91 -201,5 c -217,6 -224,8 -271,69 -18,25 -19,51 -22,778 -2,677 -1,753 13,767 13,13 39,16 123,16 178,1 301,44 422,149 80,68 427,413 542,537 75,81 160,195 195,261 6,13 24,58 40,100 27,76 28,84 30,298 1,175 5,231 18,270 44,132 121,161 255,97 z" fill="url(#g3)"/>
    <path d="m 5899.2631,4081.6805 c 28.2327,-55.5383 135.1138,-155.7057 328.7098,-307.4443 92.7648,-72.3982 351.9011,-286.6175 447.6908,-368.9333 49.4073,-42.6455 141.1637,-118.0189 204.6874,-168.5985 95.7897,-76.3652 114.9476,-96.2003 114.9476,-118.019 0,-16.8598 -8.0665,-33.7197 -20.1662,-41.6537 -11.0915,-7.9341 -37.3076,-28.761 -58.4822,-47.6043 -262.1612,-235.0462 -264.1778,-237.0297 -264.1778,-323.3125 0,-85.291 52.4322,-155.7057 147.2136,-198.3512 50.4156,-21.8186 66.5486,-24.7939 140.1554,-20.8269 73.6068,3.9671 88.7315,7.9341 123.0142,32.728 42.3491,31.7362 244.0116,200.3347 260.1446,218.1863 5.0415,5.9505 41.3408,35.7032 80.665,65.4559 107.8894,85.291 214.7705,191.4089 231.9118,231.0792 24.1995,55.5383 19.158,132.8953 -11.0914,192.4006 -27.2244,54.5466 -127.0474,147.7717 -311.5685,294.5516 -80.665,63.4724 -150.2386,122.9777 -267.2029,227.1121 -19.1579,17.8516 -96.798,80.3323 -171.4131,139.8376 -145.197,115.0437 -287.369,232.0709 -361.9842,298.5186 -102.8478,90.2498 -230.9035,186.4501 -278.2942,208.2688 -87.7232,40.662 -179.4796,25.7856 -262.1612,-42.6456 -88.7315,-73.3899 -117.9726,-182.4831 -72.5985,-270.7494 z" fill="url(#g2)"/>
  </g>
</svg>
