<svg xmlns="http://www.w3.org/2000/svg" width="1024" height="1024" viewBox="0 0 1024 1024" version="1.1"><path d="M 0 512.001 L 0 1024.002 512.250 1023.751 L 1024.500 1023.500 1024.751 511.750 L 1025.002 0 512.501 0 L 0 0 0 512.001 M 0.496 512.500 C 0.496 794.100, 0.610 909.151, 0.750 768.168 C 0.890 627.186, 0.890 396.786, 0.750 256.168 C 0.610 115.551, 0.496 230.900, 0.496 512.500 M 372.500 221.062 L 342.500 221.766 331 224.319 C 318.079 227.188, 303.740 231.688, 295.472 235.470 C 292.430 236.862, 289.504 238, 288.970 238 C 288.437 238, 288 238.450, 288 239 C 288 239.550, 287.100 240, 286 240 C 284.900 240, 284 240.340, 284 240.756 C 284 241.172, 282.554 242.152, 280.787 242.934 C 276.853 244.675, 257.073 257.763, 255 259.996 C 254.175 260.885, 252.551 262.262, 251.391 263.056 C 244.890 267.508, 228.391 284.888, 222.015 294 C 220.668 295.925, 218.989 298.094, 218.284 298.821 C 217.578 299.547, 215.785 302.247, 214.299 304.821 C 212.812 307.394, 211.308 309.725, 210.956 310 C 210.604 310.275, 207.634 315.900, 204.357 322.500 C 194.989 341.369, 190.103 357.810, 187.123 380.500 C 186.487 385.336, 185.828 428.539, 185.454 489.750 L 184.837 591 235.369 591 L 285.901 591 286.833 592.666 C 287.947 594.656, 287.225 597.267, 283.066 606.301 C 272.874 628.434, 271.417 662.624, 279.493 690.137 C 286.314 713.377, 304.464 739.461, 322.755 752.310 C 337.774 762.862, 355.055 769.851, 372.697 772.511 C 385.103 774.381, 392.984 774.366, 410.500 772.438 C 418.200 771.591, 429.802 770.581, 436.282 770.195 L 448.064 769.493 463.782 776.086 C 472.427 779.712, 488.500 786.958, 499.500 792.188 C 526.901 805.217, 530.083 806.392, 537.947 806.393 L 544.500 806.394 568.500 795.790 C 604.073 780.073, 633.563 768, 636.381 768 C 637.750 768, 642.066 768.672, 645.972 769.494 C 658.668 772.165, 678.160 773.982, 694.215 773.991 C 717.958 774.005, 734.626 770.224, 754.268 760.371 C 766.740 754.114, 770.901 751.124, 781.846 740.549 C 799.683 723.318, 810.953 702.173, 815.038 678.276 C 818.486 658.108, 817.093 634.966, 811.425 618.230 C 807.892 607.802, 800.127 591.550, 795.234 584.345 C 785.730 570.349, 770.453 556.637, 755.873 549.014 C 746.614 544.174, 728.571 538, 723.682 538 C 721.722 538, 719.858 537.579, 719.539 537.064 C 719.221 536.548, 718.787 500.211, 718.575 456.314 C 718.200 378.526, 718.002 373.311, 714.917 360 C 708.952 334.265, 697.657 310.013, 682.568 290.541 C 672.811 277.949, 657.353 262.515, 648 256.025 C 646.075 254.689, 644.275 253.316, 644 252.973 C 641.645 250.038, 621.469 238.580, 610 233.665 C 596.655 227.946, 579.540 223.724, 558.709 221.014 C 550.009 219.882, 421.316 219.915, 372.500 221.062 M 371 288 C 369.900 289.100, 369 290.815, 369 291.811 C 369 293.660, 372.425 298, 373.884 298 C 375.269 298, 377.815 294.617, 378.502 291.863 C 379.017 289.799, 378.659 288.875, 376.858 287.613 C 373.912 285.549, 373.418 285.582, 371 288 M 313.180 289.642 C 311.391 292.839, 314.564 299, 318 299 C 321.927 299, 324.629 292.029, 321.800 289.200 C 320.011 287.411, 314.264 287.706, 313.180 289.642 M 343.193 292.250 C 343.445 295.743, 343.889 296.555, 345.687 296.811 C 347.135 297.017, 348.426 296.280, 349.508 294.628 C 351.781 291.159, 350.065 288, 345.907 288 L 342.885 288 343.193 292.250 M 399.571 289.571 C 397.538 291.605, 397.562 295.419, 399.621 297.479 C 401.969 299.826, 404.255 298.984, 406.223 295.046 L 407.945 291.597 406.318 289.799 C 404.312 287.582, 401.650 287.492, 399.571 289.571 M 412.073 302.635 C 409.513 305.889, 409.483 307.140, 411.895 310.119 L 413.791 312.460 416.611 311.468 C 418.582 310.775, 419.724 309.457, 420.401 307.097 L 421.370 303.718 419.074 301.859 C 415.981 299.354, 414.526 299.515, 412.073 302.635 M 300.628 303.250 C 298.638 305.052, 298.322 305.949, 299.043 307.758 C 300.458 311.314, 304.369 312.643, 307.459 310.619 C 310.619 308.548, 310.696 306.003, 307.686 303.174 C 304.773 300.438, 303.719 300.450, 300.628 303.250 M 328.473 303.030 C 325.592 306.214, 327.470 310.398, 331.974 310.829 C 335.810 311.196, 338 309.202, 338 305.344 C 338 301.094, 331.626 299.546, 328.473 303.030 M 357.039 303.189 C 354.591 305.816, 354.515 306.862, 356.557 309.777 C 359.473 313.941, 366 311.215, 366 305.834 C 366 304.030, 362.438 301, 360.316 301 C 359.635 301, 358.160 301.985, 357.039 303.189 M 385 305 C 380.750 309.250, 384.523 314.853, 389.458 311.620 C 391.572 310.234, 392.054 309.223, 391.809 306.688 C 391.422 302.694, 388.124 301.876, 385 305 M 427.594 315.896 C 424.397 319.428, 426.790 326, 431.272 326 C 433.133 326, 436 322.320, 436 319.932 C 436 316.236, 429.926 313.320, 427.594 315.896 M 285.073 317.635 C 281.501 322.175, 282.915 326, 288.165 326 C 292.738 326, 294.713 319.861, 291.171 316.655 C 288.658 314.380, 287.484 314.569, 285.073 317.635 M 397.898 318.324 C 396.221 322.005, 397.499 325.836, 400.670 326.632 C 404.200 327.518, 406.435 325.944, 406.801 322.314 C 407.135 319.004, 405.837 317.499, 401.769 316.478 L 399.050 315.796 397.898 318.324 M 342.667 317.667 C 341.436 318.897, 341.985 324.743, 343.445 325.954 C 347.716 329.499, 353.275 323.171, 349.527 319.030 C 347.742 317.058, 344.016 316.317, 342.667 317.667 M 370.655 318.829 C 367.525 322.287, 369.166 327, 373.500 327 C 376.330 327, 378 325.144, 378 322 C 378 317.190, 373.785 315.370, 370.655 318.829 M 313.073 320.635 C 310.760 323.574, 310.675 323.940, 311.867 325.819 C 312.391 326.646, 314.159 327.019, 316.602 326.819 L 320.500 326.500 320.807 322.250 L 321.115 318 318.130 318 C 316.096 318, 314.485 318.840, 313.073 320.635 M 443.655 331.829 C 441.636 334.060, 441.488 339.330, 443.399 340.916 C 444.496 341.827, 445.382 341.575, 447.502 339.752 L 450.205 337.427 448.654 333.713 C 446.906 329.531, 446.033 329.201, 443.655 331.829 M 270.553 334.559 C 267.125 339.792, 270.657 344.825, 275.752 341.966 C 279.099 340.087, 279.678 337.683, 277.560 334.451 C 275.486 331.287, 272.669 331.330, 270.553 334.559 M 327.523 333.974 L 325.736 335.949 327.342 338.399 C 330.283 342.887, 336.033 342.622, 337.522 337.929 C 339.066 333.066, 331.171 329.944, 327.523 333.974 M 384.376 334.250 C 383.311 337.405, 383.855 340.189, 385.957 342.350 C 387.417 343.851, 388.153 343.989, 389.855 343.077 C 391.010 342.460, 392.455 341.019, 393.067 339.875 L 394.179 337.797 391.403 334.898 C 388.076 331.426, 385.411 331.180, 384.376 334.250 M 413.381 334.541 C 411.118 337.994, 412.809 342, 416.530 342 C 418.550 342, 419.433 341.207, 420.646 338.306 L 422.189 334.611 420.403 333.306 C 417.671 331.308, 415.217 331.739, 413.381 334.541 M 300.203 334.256 C 297.970 336.946, 297.823 340.530, 299.869 342.381 C 302.443 344.711, 305.062 344.144, 306.906 340.858 L 308.381 338.230 306.667 335.615 C 304.836 332.820, 301.906 332.204, 300.203 334.256 M 356.035 334.934 C 353.425 339.811, 355.982 343.839, 360.691 342.270 C 364.268 341.077, 365.786 335.491, 362.945 333.971 C 360.067 332.430, 357.158 332.836, 356.035 334.934 M 313.189 349.039 C 310.464 351.577, 310.397 354.397, 313 357 C 315.589 359.589, 316.570 359.521, 319.545 356.545 C 325.332 350.758, 319.163 343.473, 313.189 349.039 M 369.014 348.974 C 367.661 351.502, 368.356 354.107, 371.030 356.527 C 372.653 357.996, 373.451 358.115, 375.476 357.193 C 378.470 355.829, 379.857 351.400, 377.880 349.516 C 377.121 348.793, 375.069 347.902, 373.320 347.536 C 370.717 346.992, 369.935 347.254, 369.014 348.974 M 399.119 348.357 C 397.612 350.173, 398.755 355.468, 401.115 357.604 L 403 359.310 404.974 357.523 C 407.856 354.916, 408.383 352.233, 406.560 349.451 C 404.786 346.743, 400.929 346.176, 399.119 348.357 M 426.371 349.557 L 424.695 352.114 426.703 354.807 C 429.288 358.272, 431.368 358.632, 433.939 356.061 C 436.230 353.770, 436.639 350.039, 434.800 348.200 C 432.659 346.059, 428.192 346.778, 426.371 349.557 M 256.200 349.200 C 254.347 351.053, 254.779 355.490, 257.010 357.509 L 259.019 359.328 261.493 358.004 C 264.554 356.366, 265.354 354.060, 264.050 350.632 C 263.295 348.647, 262.355 348, 260.225 348 C 258.671 348, 256.860 348.540, 256.200 349.200 M 284.977 350.023 C 281.581 353.419, 283.292 360, 287.571 360 C 289.806 360, 293 356.248, 293 353.622 C 293 349.318, 287.949 347.051, 284.977 350.023 M 343.039 350.189 C 341.918 351.392, 341 353.348, 341 354.534 C 341 356.797, 343.830 360, 345.829 360 C 347.707 360, 351 356.179, 351 354 C 351 351.939, 347.743 348, 346.039 348 C 345.510 348, 344.160 348.985, 343.039 350.189 M 455.245 349.155 C 452.075 352.325, 455.492 358.469, 459.798 357.343 C 462.078 356.746, 463.447 353.580, 462.830 350.329 C 462.411 348.119, 457.102 347.298, 455.245 349.155 M 392.937 370.250 C 378.302 386.316, 354.053 412.083, 342.585 423.753 L 331.527 435.005 315.368 418.868 L 299.208 402.731 296.377 403.442 C 293.186 404.242, 286.347 410.958, 284.932 414.679 C 282.856 420.138, 283.741 422.198, 292.152 431.500 C 311.516 452.915, 328.359 470.052, 330.593 470.613 C 336.857 472.185, 339.108 470.229, 362.312 443.055 C 378.244 424.395, 398.741 401.279, 408.628 390.819 C 416.521 382.469, 420.366 376.174, 419.325 373.308 C 418.158 370.096, 412.863 363.981, 409.942 362.470 C 403.965 359.379, 402.035 360.262, 392.937 370.250 M 241.557 364.223 C 239.662 366.927, 239.583 369.048, 241.289 371.381 C 243.002 373.723, 247.548 372.619, 249.697 369.340 L 251.279 366.926 248.965 364.463 C 246.094 361.407, 243.586 361.326, 241.557 364.223 M 356.239 363.666 C 352.578 365.141, 352.996 372.017, 356.836 373.491 C 358.730 374.217, 363.368 370.957, 363.838 368.570 C 364.526 365.067, 360.003 362.149, 356.239 363.666 M 440.110 364.290 C 438.421 365.979, 438.776 368.382, 441.079 370.854 C 444.258 374.267, 449.361 372.101, 448.756 367.595 C 448.430 365.168, 441.775 362.625, 440.110 364.290 M 298.348 366.592 L 296.649 369.185 298.253 371.842 C 300.211 375.087, 303.510 375.754, 306.082 373.425 C 308.503 371.235, 308.542 367.801, 306.171 365.655 C 303.497 363.235, 300.296 363.618, 298.348 366.592 M 325.625 365.517 C 323.531 367.612, 323.575 368.190, 326.073 371.365 C 328.603 374.582, 332.912 374.860, 335.522 371.976 L 337.354 369.951 335.328 367.226 C 332.902 363.962, 328.038 363.105, 325.625 365.517 M 269.667 365.667 C 268.494 366.839, 268.951 370.485, 270.557 372.777 C 272.621 375.725, 275.566 375.592, 277.619 372.459 C 280.120 368.642, 278.201 365, 273.688 365 C 271.843 365, 270.033 365.300, 269.667 365.667 M 454.200 379.200 C 452.497 380.903, 452.702 382.351, 455.073 385.365 C 459.619 391.145, 467.611 386.634, 463.619 380.541 C 461.790 377.750, 456.415 376.985, 454.200 379.200 M 284.200 380.200 C 283.540 380.860, 283.014 382.547, 283.032 383.950 C 283.100 389.389, 287.994 391.874, 291.345 388.171 C 293.544 385.741, 293.433 383.433, 291 381 C 288.743 378.743, 285.982 378.418, 284.200 380.200 M 342.396 381.519 C 340.025 385.137, 341.461 389.375, 345.206 389.810 C 348.504 390.194, 351.298 386.465, 350.823 382.315 L 350.500 379.500 347.312 379.191 C 344.783 378.946, 343.766 379.428, 342.396 381.519 M 427.571 380.571 C 425.619 382.524, 425.618 383.009, 427.557 385.777 C 429.372 388.370, 433.173 388.684, 435.429 386.429 C 437.271 384.586, 437.371 383.562, 435.965 380.934 C 434.690 378.553, 429.801 378.342, 427.571 380.571 M 255.678 380.656 C 254.564 381.770, 254.910 386.510, 256.200 387.800 C 259.123 390.723, 264 388.118, 264 383.633 C 264 382.280, 263.208 381.859, 257.928 380.410 C 257.063 380.172, 256.050 380.283, 255.678 380.656 M 312.596 382.166 C 310.442 385.242, 310.574 386.251, 313.490 388.991 L 315.980 391.330 318.463 390.199 C 321.259 388.925, 322.805 384.506, 321.296 382.095 C 319.651 379.465, 314.459 379.507, 312.596 382.166 M 241.567 395.926 C 239.304 398.426, 239.838 400.794, 243.238 403.330 L 245.975 405.372 248.488 403.012 C 251.532 400.152, 251.610 399.032, 248.961 396.189 C 246.445 393.488, 243.856 393.396, 241.567 395.926 M 271.035 395.934 C 269.489 398.824, 269.776 401.502, 271.915 404.139 L 273.830 406.500 276.398 404.092 C 279.913 400.795, 280.546 398.260, 278.435 395.928 C 276.192 393.449, 272.364 393.452, 271.035 395.934 M 327.867 397.393 C 326.930 399.449, 327.033 400.401, 328.422 402.521 C 330.413 405.560, 331.624 405.384, 334.411 401.651 C 336.872 398.356, 335.728 395.671, 331.658 395.184 C 329.639 394.943, 328.746 395.464, 327.867 397.393 M 442.750 396.056 C 439.181 398.184, 441.765 405, 446.141 405 C 449.182 405, 450.487 402.473, 449.833 397.852 C 449.459 395.208, 445.750 394.268, 442.750 396.056 M 256.557 411.223 C 254.484 414.181, 254.590 417.319, 256.829 419.345 C 260.631 422.786, 264 420.667, 264 414.835 C 264 412.136, 263.452 410.777, 262.066 410.035 C 259.255 408.531, 258.298 408.737, 256.557 411.223 M 456.557 411.223 C 454.307 414.434, 454.567 418.698, 457.094 420.050 C 458.820 420.974, 459.596 420.789, 461.500 419 C 464.527 416.156, 465.115 413.609, 463.333 411.065 C 461.445 408.369, 458.507 408.438, 456.557 411.223 M 427.035 412.934 C 426.466 413.998, 426 415.728, 426 416.779 C 426 418.999, 428.974 422, 431.174 422 C 433.255 422, 436 418.774, 436 416.326 C 436 411.786, 429.056 409.159, 427.035 412.934 M 241.985 427.015 C 239.313 429.687, 239.486 432.169, 242.545 435.042 C 244.502 436.881, 245.468 437.194, 246.728 436.400 C 251.003 433.703, 250.885 428.180, 246.509 426.186 L 243.971 425.029 241.985 427.015 M 442.580 427.912 C 440.523 430.185, 440.810 434.867, 443.095 436.296 C 445.505 437.804, 449.513 436.363, 450.807 433.524 C 453.456 427.710, 446.844 423.200, 442.580 427.912 M 413.200 430.200 C 412.540 430.860, 412 432.570, 412 434 C 412 437.368, 413.706 439, 417.225 439 C 419.315 439, 420.296 438.352, 420.997 436.509 C 422.215 433.303, 421.500 431.549, 418.398 430.135 C 415.267 428.709, 414.684 428.716, 413.200 430.200 M 256.609 444.421 C 255.771 447.762, 256.794 449.910, 259.553 450.603 C 262.721 451.398, 264 450.402, 264 447.141 C 264 443.833, 262.363 442, 259.408 442 C 257.924 442, 257.021 442.781, 256.609 444.421 M 399.958 443.550 C 398.172 445.703, 399.850 452.355, 402.298 452.822 C 406.657 453.654, 408.770 446.912, 405.171 443.655 C 402.893 441.593, 401.604 441.567, 399.958 443.550 M 426.580 443.653 C 425.646 446.087, 427.851 451.850, 430.197 453.105 C 434.405 455.357, 437.705 447.705, 434.087 444.087 C 431.589 441.589, 427.463 441.350, 426.580 443.653 M 453.194 455.266 C 451.558 457.238, 437.434 493.523, 425.928 525.314 L 415.500 554.128 412 553.581 C 402.987 552.172, 381.781 551.780, 375.800 552.912 C 337.363 560.184, 306.132 587.617, 295.439 623.500 C 292.174 634.454, 291.009 655.798, 292.951 669.078 C 295.273 684.961, 303.048 704.079, 312.272 716.592 C 321.417 728.997, 336.833 741.498, 350.365 747.483 C 376.653 759.109, 408.935 757.798, 436.500 743.986 C 448.935 737.756, 457.366 730.962, 466.266 720 C 473.602 710.965, 481.417 696.281, 484.893 685 C 491.231 664.430, 490.852 638.331, 483.920 617.861 C 476.920 597.193, 460.647 577.117, 441.712 565.788 C 437.979 563.555, 435.054 561.439, 435.212 561.086 C 436.615 557.963, 444.889 538.067, 445.408 536.567 L 446.078 534.633 447.893 536.567 C 448.891 537.630, 464.303 556.725, 482.142 579 C 516.230 621.565, 553.057 666.299, 554.997 667.498 C 555.627 667.888, 566.348 668.139, 578.822 668.056 L 601.500 667.907 603.723 676.973 C 607.459 692.214, 615.226 707.679, 625.358 720.051 C 636.461 733.609, 657.483 747.091, 675.500 752.210 L 683.500 754.483 701 754.435 L 718.500 754.387 728.500 751.716 C 772.193 740.049, 801.899 698.834, 799.678 652.961 C 798.979 638.514, 796.983 629.570, 791.243 615.170 C 785.645 601.122, 778.848 590.547, 769.718 581.677 C 757.541 569.849, 744.418 561.945, 729.307 557.341 L 720.500 554.657 701 554.591 L 681.500 554.524 673.329 556.763 C 668.834 557.995, 664.502 559.254, 663.701 559.561 C 662.639 559.969, 658.682 553.871, 649.094 537.052 C 641.862 524.364, 635.537 512.912, 635.039 511.603 C 634.340 509.763, 634.813 507.787, 637.129 502.891 C 638.776 499.408, 641.724 492.833, 643.681 488.279 L 647.237 480 658.530 480 L 669.822 480 672.371 476.971 C 675.730 472.979, 676.612 468.084, 674.654 464.299 C 671.736 458.655, 672.707 458.793, 636.786 458.947 C 600.088 459.104, 600.646 459.011, 597.585 465.462 L 595.871 469.074 597.685 472.787 C 600.071 477.669, 603.781 478.872, 616.666 478.944 L 626.832 479 621.666 490.067 L 616.500 501.134 562 500.317 C 532.025 499.868, 496.813 499.500, 483.750 499.500 C 470.688 499.500, 460.025 499.275, 460.055 499 C 460.085 498.725, 461.365 493.100, 462.900 486.500 L 465.690 474.500 485.936 474 L 506.181 473.500 508.194 471.012 C 510.859 467.717, 510.396 457.494, 507.485 455.366 C 504.869 453.452, 454.776 453.361, 453.194 455.266 M 270.655 457.829 C 267.441 461.380, 269.877 467, 274.629 467 C 278.981 467, 280.664 460.816, 277.171 457.655 C 274.794 455.504, 272.709 455.560, 270.655 457.829 M 242 459 C 239.721 461.279, 239.625 461.882, 240.975 465.435 C 241.709 467.366, 242.660 468, 244.820 468 C 250.159 468, 252.927 462.054, 249.171 458.655 C 246.741 456.456, 244.433 456.567, 242 459 M 412.609 459.534 C 410.895 461.247, 411.814 465.032, 414.725 468.248 C 416.748 470.484, 418.271 470.463, 420.345 468.171 C 423.044 465.189, 422.459 461.289, 419.050 459.526 C 415.362 457.619, 414.523 457.620, 412.609 459.534 M 384.739 460.750 C 382.799 462.910, 383.471 467.211, 386.122 469.611 L 388.034 471.341 391.017 468.483 C 394.446 465.199, 394.769 463.006, 392.171 460.655 C 389.800 458.509, 386.716 458.548, 384.739 460.750 M 282.837 474.459 C 281.215 478.019, 283.964 482, 288.044 482 C 292.195 482, 294.016 478.200, 291.619 474.541 C 289.330 471.048, 284.412 471.003, 282.837 474.459 M 256.200 475.200 C 253.432 477.968, 255.228 483, 258.985 483 C 262.004 483, 263.409 481.732, 264.265 478.237 C 265.137 474.679, 259.023 472.377, 256.200 475.200 M 372.176 475.870 C 370.332 477.039, 371.088 483.041, 373.250 484.394 C 375.715 485.937, 378.414 484.031, 378.836 480.448 C 379.316 476.374, 375.509 473.757, 372.176 475.870 M 399.035 476.934 C 397.464 479.870, 397.788 482.498, 399.963 484.466 C 402.503 486.765, 404.731 485.845, 406.500 481.765 L 407.916 478.500 405.847 476.750 C 403.131 474.453, 400.323 474.529, 399.035 476.934 M 271.260 488.250 C 269.238 490.817, 268.875 495.160, 270.477 497.606 C 272.390 500.525, 274.356 500.644, 277 498 C 279.675 495.325, 279.521 492.430, 276.545 489.455 C 273.782 486.691, 272.685 486.441, 271.260 488.250 M 299.200 488.200 C 298.540 488.860, 298 490.795, 298 492.500 C 298 496.332, 299.566 498, 303.165 498 C 308.112 498, 309.780 491.396, 305.535 488.615 C 302.599 486.691, 300.825 486.575, 299.200 488.200 M 241.655 489.829 C 239.726 491.960, 239.467 497.067, 241.200 498.800 C 243.181 500.781, 246.659 500.169, 248.385 497.535 C 250.825 493.812, 250.399 491.258, 247.050 489.526 C 243.402 487.640, 243.649 487.626, 241.655 489.829 M 329.655 490.829 C 326.369 494.459, 328.115 500, 332.545 500 C 337.472 500, 339.751 493.340, 335.777 490.557 C 332.898 488.540, 331.677 488.594, 329.655 490.829 M 356.975 492.046 C 355.446 494.904, 356.157 500.083, 358.259 501.399 C 359.591 502.233, 360.681 502.129, 362.759 500.967 C 366.429 498.913, 366.757 495.666, 363.612 492.521 C 360.557 489.466, 358.437 489.315, 356.975 492.046 M 384.613 492.142 C 382.441 495.244, 382.569 496.247, 385.490 498.991 L 387.980 501.330 390.463 500.199 C 393.472 498.828, 394.855 494.413, 392.880 492.481 C 392.121 491.739, 390.313 490.841, 388.863 490.486 C 386.806 489.982, 385.870 490.347, 384.613 492.142 M 413.655 492.829 C 411.408 495.312, 411.571 498.700, 414 500 C 418.621 502.473, 423.071 496.096, 419.016 492.812 C 416.228 490.554, 415.712 490.556, 413.655 492.829 M 314.395 504.781 C 311.311 507.300, 310.669 509.977, 312.631 512.145 C 314.825 514.569, 318.495 514.505, 321 512 C 323.310 509.690, 323.510 508.031, 321.750 505.792 C 319.790 503.299, 316.725 502.878, 314.395 504.781 M 344.770 504.883 C 341.217 506.972, 339.272 511.418, 341.001 513.501 C 342.727 515.581, 345.627 515.373, 348 513 C 350.269 510.731, 350.600 507.127, 348.750 504.831 L 347.500 503.279 344.770 504.883 M 256.750 505.080 C 254.270 506.525, 254.450 512.193, 257.052 514.547 L 259.103 516.403 261.516 513.452 C 264.754 509.489, 264.723 506.225, 261.435 504.975 C 258.418 503.828, 258.919 503.817, 256.750 505.080 M 283.566 505.927 L 281.821 507.855 283.168 510.677 C 284.043 512.511, 285.418 513.605, 287.093 513.801 C 289.986 514.138, 291.419 512.777, 292.371 508.790 C 292.867 506.712, 292.565 505.838, 291.075 505.040 C 288.144 503.471, 285.506 503.783, 283.566 505.927 M 370.055 508.657 L 367.965 511.314 369.352 513.407 C 370.936 515.797, 373.097 516.443, 376.579 515.570 C 378.525 515.081, 379 514.318, 379 511.681 C 379 505.660, 373.796 503.901, 370.055 508.657 M 398.200 507.200 C 395.254 510.146, 398.462 516, 403.022 516 C 407.738 516, 409.437 511.437, 406 508 C 403.763 505.763, 400.021 505.379, 398.200 507.200 M 269.750 520.572 C 264.949 523.177, 267.077 529.459, 272.549 528.836 L 275.500 528.500 275.819 524.602 C 276.019 522.159, 275.646 520.391, 274.819 519.867 C 273.119 518.789, 273.007 518.805, 269.750 520.572 M 240.706 521.772 C 238.461 524.253, 238.551 526.284, 241.004 528.504 C 242.652 529.995, 243.447 530.117, 245.476 529.193 C 248.056 528.017, 249.888 523.473, 248.377 521.998 C 246.334 520.003, 242.412 519.887, 240.706 521.772 M 297.540 521.956 C 294.858 524.920, 296.778 529, 300.856 529 C 304.467 529, 306.242 526.967, 305.822 523.310 C 305.557 520.996, 304.962 520.447, 302.449 520.201 C 300.369 519.998, 298.807 520.556, 297.540 521.956 M 384.557 522.223 C 380.311 528.284, 385.869 534.131, 391 529 C 392.100 527.900, 393 526.325, 393 525.500 C 393 523.588, 389.449 520, 387.557 520 C 386.763 520, 385.413 521, 384.557 522.223 M 461.115 520.766 C 461.513 521.881, 543.724 625.470, 555.507 639.704 L 557.515 642.129 568.450 615.814 C 582.522 581.952, 606.941 521.607, 606.678 521.345 C 606.566 521.233, 573.682 520.815, 533.602 520.415 C 481.653 519.897, 460.840 519.998, 461.115 520.766 M 326.564 523.877 L 325.015 526.872 326.579 528.436 C 328.834 530.691, 331.308 530.366, 334.042 527.455 C 337.013 524.293, 335.817 521.652, 331.205 521.191 L 328.113 520.882 326.564 523.877 M 356.223 522.557 C 353.370 524.555, 353.200 529.502, 355.934 530.965 C 358.686 532.438, 360.472 532.254, 362.888 530.250 C 364.611 528.820, 364.882 527.814, 364.368 524.750 L 363.738 521 361.092 521 C 359.636 521, 357.445 521.701, 356.223 522.557 M 623 533.344 C 623 534.518, 613.388 558.476, 594.251 605 C 591.197 612.425, 585.841 624.697, 582.349 632.272 C 578.857 639.847, 576 646.484, 576 647.022 C 576 647.609, 581.164 648, 588.910 648 L 601.819 648 603.002 640.750 C 605.370 626.239, 612.500 608.606, 621.300 595.500 C 623.516 592.200, 629.918 584.983, 635.528 579.462 L 645.727 569.424 638.273 556.962 C 634.173 550.108, 629.412 541.688, 627.694 538.250 C 624.698 532.255, 623 530.480, 623 533.344 M 256.200 536.200 C 254.201 538.199, 254.819 541.835, 257.451 543.560 C 262.295 546.734, 267.626 542.131, 264.548 537.433 C 262.806 534.774, 258.293 534.107, 256.200 536.200 M 283.200 536.200 C 281.211 538.189, 281.843 541.731, 284.568 543.875 C 286.688 545.542, 287.561 545.701, 289.568 544.787 C 290.906 544.178, 292 542.888, 292 541.921 C 292 540.955, 292.242 539.532, 292.539 538.760 C 293.585 536.034, 285.565 533.835, 283.200 536.200 M 313.223 536.557 C 311.819 537.540, 311 539.153, 311 540.935 C 311 544.618, 315.695 546.916, 319.591 545.141 L 322.091 544.001 321.401 540.251 C 320.400 534.808, 317.555 533.522, 313.223 536.557 M 384.862 574.027 C 366.408 575.651, 350.816 582.960, 338 595.996 C 321.907 612.363, 313.131 634.486, 314.246 655.873 C 315.522 680.332, 326.611 703.596, 343.524 717.290 C 365.896 735.405, 399.993 738.059, 427.294 723.810 C 443.059 715.582, 457.401 697.944, 464.283 678.320 L 467.377 669.500 467.804 655.670 C 468.314 639.175, 466.854 631.689, 460.753 619.500 C 452.933 603.879, 445.684 594.918, 433.821 586.210 L 428.141 582.042 423.127 594.772 C 418.953 605.371, 412.852 622.312, 400.261 658.269 C 398.580 663.071, 395.985 665.638, 392.427 666.022 C 387.863 666.515, 385.666 665.820, 382.831 662.985 L 379.817 659.970 380.264 654.735 C 380.510 651.856, 382.116 646.125, 383.835 642 C 385.553 637.875, 391.717 621.271, 397.532 605.103 C 404.837 584.792, 407.784 575.384, 407.067 574.667 C 405.663 573.263, 396.530 573, 384.862 574.027 M 684.250 577.193 C 678.612 578.300, 674 579.677, 674 580.255 C 674 580.832, 682.781 598.624, 693.513 619.792 L 713.026 658.280 710.501 662.588 C 709.112 664.958, 707.428 667.236, 706.758 667.650 C 706.087 668.064, 687.373 668.271, 665.170 668.110 L 624.801 667.818 625.507 671.159 C 626.802 677.291, 632.166 688.997, 637.242 696.774 C 656.962 726.981, 691.963 738.792, 726.987 727.058 C 738.300 723.268, 744.486 719.256, 753.613 709.792 C 779.821 682.614, 784.563 653.230, 768.507 617.500 C 764.247 608.021, 757.567 599.539, 748.698 592.350 C 738.678 584.227, 729.357 579.650, 717.500 577.031 C 706.311 574.560, 697.438 574.603, 684.250 577.193 M 649.378 596.250 C 642.277 603.721, 637.141 610.707, 633.753 617.500 C 630.167 624.688, 625.981 637.364, 625.304 643.083 L 624.721 648 655.415 648 L 686.109 648 671.432 619 C 663.359 603.050, 656.431 590, 656.036 590 C 655.640 590, 652.644 592.813, 649.378 596.250" stroke="none" fill="#faf8f0" fill-rule="evenodd"/><path d="M 372.500 221.062 L 342.500 221.766 331 224.319 C 318.079 227.188, 303.740 231.688, 295.472 235.470 C 292.430 236.862, 289.504 238, 288.970 238 C 288.437 238, 288 238.450, 288 239 C 288 239.550, 287.100 240, 286 240 C 284.900 240, 284 240.340, 284 240.756 C 284 241.172, 282.554 242.152, 280.787 242.934 C 276.853 244.675, 257.073 257.763, 255 259.996 C 254.175 260.885, 252.551 262.262, 251.391 263.056 C 244.890 267.508, 228.391 284.888, 222.015 294 C 220.668 295.925, 218.989 298.094, 218.284 298.821 C 217.578 299.547, 215.785 302.247, 214.299 304.821 C 212.812 307.394, 211.308 309.725, 210.956 310 C 210.604 310.275, 207.634 315.900, 204.357 322.500 C 194.986 341.375, 190.089 357.858, 187.127 380.500 C 186.503 385.274, 185.841 426.912, 185.486 483.750 L 184.892 579 204.385 579 L 223.877 579 224.394 574.750 C 224.678 572.413, 225.143 529.550, 225.427 479.500 C 225.983 381.333, 225.933 382.281, 231.553 362.529 C 234.082 353.643, 242.801 334.174, 245.785 330.750 C 246.624 329.788, 246.998 329, 246.616 329 C 246.234 329, 246.840 328.015, 247.961 326.811 C 249.082 325.608, 250 324.261, 250 323.819 C 250 323.377, 250.946 321.927, 252.103 320.597 C 253.259 319.267, 254.047 317.996, 253.853 317.772 C 253.120 316.928, 278.179 292.399, 282.001 290.220 C 284.200 288.966, 286 287.477, 286 286.911 C 286 286.345, 286.368 286.109, 286.818 286.387 C 287.268 286.666, 288.747 285.905, 290.105 284.696 C 291.463 283.488, 293.232 282.354, 294.037 282.175 C 294.842 281.996, 295.650 281.434, 295.833 280.925 C 296.017 280.416, 297.029 280, 298.083 280 C 299.137 280, 300 279.550, 300 279 C 300 278.450, 300.900 278, 302 278 C 303.100 278, 304 277.602, 304 277.117 C 304 276.631, 305.012 275.989, 306.250 275.690 C 307.488 275.391, 313 273.555, 318.500 271.609 C 333.765 266.209, 344.570 264.679, 363 265.307 C 378.069 265.821, 384.297 266.926, 399.750 271.829 C 401.538 272.396, 403 272.635, 403 272.359 C 403 272.083, 403.711 272.568, 404.581 273.438 C 405.450 274.307, 406.575 274.763, 407.081 274.450 C 407.586 274.138, 408 274.359, 408 274.941 C 408 275.523, 408.863 276, 409.917 276 C 410.971 276, 411.983 276.416, 412.167 276.925 C 412.350 277.434, 413.164 277.996, 413.976 278.175 C 414.788 278.354, 416.062 279.067, 416.807 279.759 C 417.552 280.452, 418.575 280.763, 419.081 280.450 C 419.586 280.138, 420 280.282, 420 280.772 C 420 281.262, 421.231 282.301, 422.736 283.081 C 424.241 283.861, 426.527 285.400, 427.816 286.500 C 429.105 287.600, 430.359 288.377, 430.603 288.227 C 430.846 288.077, 432.107 289.016, 433.404 290.313 C 434.701 291.610, 437.952 294.433, 440.630 296.586 C 446.871 301.605, 447.592 302.292, 448.089 303.696 C 448.315 304.334, 451.196 307.701, 454.492 311.178 C 457.787 314.655, 460.276 317.500, 460.022 317.500 C 459.565 317.500, 465.842 327.036, 466.934 328 C 467.245 328.275, 469.179 331.950, 471.232 336.166 C 481.443 357.145, 484.837 371.675, 485.070 395.414 L 485.206 409.328 566.268 408.664 C 610.853 408.299, 663.525 408, 683.319 408 L 719.307 408 718.624 392.023 C 717.843 373.762, 716.743 366.115, 712.793 351.500 C 707.122 330.518, 695.708 307.498, 682.568 290.541 C 672.811 277.949, 657.353 262.515, 648 256.025 C 646.075 254.689, 644.275 253.316, 644 252.973 C 641.645 250.038, 621.469 238.580, 610 233.665 C 596.655 227.946, 579.540 223.724, 558.709 221.014 C 550.009 219.882, 421.316 219.915, 372.500 221.062 M 718.349 417 C 718.349 421.675, 718.522 423.587, 718.732 421.250 C 718.943 418.913, 718.943 415.087, 718.732 412.750 C 718.522 410.413, 718.349 412.325, 718.349 417 M 464.250 453.745 C 469.063 453.928, 476.938 453.928, 481.750 453.745 C 486.563 453.561, 482.625 453.411, 473 453.411 C 463.375 453.411, 459.438 453.561, 464.250 453.745" stroke="none" fill="#ffcb0b" fill-rule="evenodd"/><path d="M 336.597 266.546 C 281.336 276.950, 237.853 322.165, 227.463 380.029 C 226.203 387.047, 225.854 404.109, 225.427 479.500 C 225.143 529.550, 224.678 572.413, 224.394 574.750 L 223.877 579 204.439 579 L 185 579 185 585 L 185 591 235.450 591 L 285.901 591 286.833 592.666 C 287.905 594.582, 287.122 597.873, 284.249 603.528 C 281.177 609.574, 277.397 622.432, 275.608 632.926 C 270.609 662.236, 277.916 696.722, 294.439 721.802 C 311.983 748.433, 336.050 764.948, 367 771.597 C 377.177 773.784, 400.729 774.054, 414.348 772.142 C 419.214 771.459, 428.664 770.515, 435.348 770.046 L 447.500 769.192 463 775.692 C 471.525 779.267, 487.500 786.485, 498.500 791.732 C 528.368 805.979, 536.088 808.403, 543.784 805.947 C 545.828 805.294, 557.625 800.349, 570 794.958 C 610.108 777.484, 633.302 768, 635.929 768 C 637.343 768, 642.100 768.691, 646.500 769.535 C 671.390 774.310, 702.689 775.404, 719.754 772.095 C 739.349 768.297, 759.097 759.624, 772.395 748.977 C 803.267 724.256, 818.586 689.961, 816.723 649.731 C 815.848 630.825, 812.877 619.342, 803.903 600.175 C 795.844 582.964, 784.393 568.816, 769.500 557.672 C 757.319 548.558, 737.880 540.074, 725 538.253 L 719.500 537.475 718.751 495.487 C 718.340 472.394, 718.115 443.200, 718.251 430.610 L 718.500 407.721 601.876 408.462 L 485.253 409.202 484.723 391.351 L 484.193 373.500 481.545 363.500 C 475.258 339.758, 463.575 319.726, 445.387 301.500 C 428.833 284.911, 409.931 274.156, 386.339 267.904 C 375.798 265.110, 348.223 264.357, 336.597 266.546 M 371 288 C 369.900 289.100, 369 290.900, 369 292 C 369 293.992, 372.237 298, 373.845 298 C 375.398 298, 377.970 294.402, 378.573 291.384 L 379.170 288.399 376.538 287.199 C 373.181 285.670, 373.355 285.645, 371 288 M 313.180 289.642 C 311.391 292.839, 314.564 299, 318 299 C 321.927 299, 324.629 292.029, 321.800 289.200 C 320.011 287.411, 314.264 287.706, 313.180 289.642 M 343.193 292.250 C 343.445 295.743, 343.889 296.555, 345.687 296.811 C 347.135 297.017, 348.426 296.280, 349.508 294.628 C 351.781 291.159, 350.065 288, 345.907 288 L 342.885 288 343.193 292.250 M 399.750 289.080 C 396.069 291.224, 398.755 299.576, 402.871 298.788 C 403.767 298.617, 405.400 296.769, 406.500 294.682 L 408.500 290.887 406.559 289.444 C 404.299 287.763, 402.203 287.651, 399.750 289.080 M 412.073 302.635 C 409.590 305.791, 409.513 306.860, 411.557 309.777 C 413.489 312.536, 416.377 312.623, 419 310 C 421.496 307.504, 421.571 303.827, 419.171 301.655 C 416.576 299.306, 414.461 299.598, 412.073 302.635 M 300.356 303.370 L 297.600 305.741 299.273 308.295 C 301.521 311.724, 304.519 312.545, 307.549 310.560 C 310.623 308.545, 310.671 305.979, 307.686 303.174 C 304.754 300.420, 303.755 300.447, 300.356 303.370 M 328.580 302.911 C 324.839 307.046, 329.524 313.449, 334.599 311.137 C 337.280 309.915, 338.775 305.459, 337.296 303.095 C 335.765 300.648, 330.725 300.542, 328.580 302.911 M 357.039 303.189 C 354.514 305.899, 354.447 308.189, 356.829 310.345 C 359.375 312.650, 362.600 312.409, 364.443 309.777 C 366.602 306.696, 366.389 304.386, 363.777 302.557 C 360.795 300.467, 359.457 300.593, 357.039 303.189 M 385.223 304.557 C 384 305.413, 383 307.158, 383 308.434 C 383 314.032, 390.341 314.205, 391.852 308.642 C 393.276 303.402, 389.868 301.303, 385.223 304.557 M 427.594 315.896 C 424.436 319.385, 426.780 326, 431.174 326 C 433.255 326, 436 322.774, 436 320.326 C 436 316.291, 430.067 313.164, 427.594 315.896 M 285.073 317.635 C 281.501 322.175, 282.915 326, 288.165 326 C 292.738 326, 294.713 319.861, 291.171 316.655 C 288.658 314.380, 287.484 314.569, 285.073 317.635 M 398.200 317.200 C 395.144 320.256, 397.646 327, 401.835 327 C 405.339 327, 407 325.346, 407 321.857 C 407 317.455, 401.079 314.321, 398.200 317.200 M 342.667 317.667 C 341.436 318.897, 341.985 324.743, 343.445 325.954 C 347.716 329.499, 353.275 323.171, 349.527 319.030 C 347.742 317.058, 344.016 316.317, 342.667 317.667 M 370.035 318.934 C 367.796 323.118, 369.464 327, 373.500 327 C 376.330 327, 378 325.144, 378 322 C 378 320.570, 377.460 318.860, 376.800 318.200 C 374.963 316.363, 371.192 316.772, 370.035 318.934 M 313.174 320.314 C 311.978 321.587, 311 323.399, 311 324.339 C 311 326.672, 315.326 328.207, 318.500 327 L 321 326.050 321 322.025 L 321 318 318.174 318 C 316.514 318, 314.452 318.954, 313.174 320.314 M 443.655 331.829 C 441.636 334.060, 441.488 339.330, 443.399 340.916 C 444.498 341.828, 445.407 341.554, 447.633 339.640 L 450.467 337.202 448.750 333.601 C 446.802 329.517, 445.999 329.238, 443.655 331.829 M 270.446 334.442 C 267.051 339.624, 270.701 344.800, 275.752 341.966 C 279.099 340.087, 279.678 337.683, 277.560 334.451 C 275.510 331.322, 272.493 331.318, 270.446 334.442 M 327.534 333.963 C 325.405 336.315, 325.988 338.291, 329.487 340.584 C 334.449 343.834, 340.315 338.215, 336.435 333.928 C 334.184 331.441, 329.800 331.458, 327.534 333.963 M 384.345 333.820 C 382.883 336.160, 383.705 340.423, 386.022 342.520 C 388.154 344.450, 391.238 343.292, 393.067 339.875 L 394.179 337.797 391.403 334.898 C 388.209 331.565, 385.967 331.222, 384.345 333.820 M 413.381 334.541 C 411.130 337.977, 412.809 342, 416.495 342 C 419.850 342, 423.076 336.001, 421.040 333.548 C 419.060 331.162, 415.274 331.653, 413.381 334.541 M 298.979 336.563 L 297.804 340.125 299.597 342.107 C 301.938 344.694, 305.062 344.164, 306.907 340.865 L 308.381 338.230 306.667 335.615 C 304.064 331.642, 300.457 332.086, 298.979 336.563 M 356.200 334.200 C 354.500 335.900, 354.712 340.516, 356.560 342.050 C 358.999 344.074, 363.189 342.120, 364.169 338.500 C 364.795 336.189, 364.595 335.213, 363.300 334.250 C 361.169 332.667, 357.757 332.643, 356.200 334.200 M 313.061 348.939 C 310.482 351.518, 310.443 354.101, 312.939 357.139 L 314.879 359.500 317.676 357.969 C 321.036 356.130, 322.909 351.671, 321.361 349.197 C 319.773 346.661, 315.473 346.527, 313.061 348.939 M 369.200 348.200 C 368.540 348.860, 368 350.149, 368 351.065 C 368 353.292, 371.783 358, 373.573 358 C 375.833 358, 379 354.234, 379 351.547 C 379 349.564, 378.281 348.894, 375.250 348.053 C 370.572 346.753, 370.648 346.752, 369.200 348.200 M 399.034 348.459 C 397.451 350.367, 398.543 355.277, 401.057 357.551 L 403 359.310 404.974 357.523 C 407.856 354.916, 408.383 352.233, 406.560 349.451 C 404.752 346.692, 400.919 346.187, 399.034 348.459 M 426.371 349.557 L 424.695 352.114 426.703 354.807 C 429.288 358.272, 431.368 358.632, 433.939 356.061 C 436.230 353.770, 436.639 350.039, 434.800 348.200 C 432.659 346.059, 428.192 346.778, 426.371 349.557 M 255.489 350.377 C 254.220 352.313, 254.151 353.238, 255.117 355.358 C 256.668 358.762, 259.297 359.507, 262.454 357.438 C 265.152 355.670, 265.667 353.114, 263.965 349.934 C 262.450 347.103, 257.463 347.364, 255.489 350.377 M 285 350 C 282.778 352.222, 282.349 356.949, 284.200 358.800 C 285.982 360.582, 288.743 360.257, 291 358 C 293.654 355.346, 293.552 351.500, 290.777 349.557 C 287.917 347.553, 287.408 347.592, 285 350 M 343.039 350.189 C 340.451 352.967, 340.437 356.181, 343.004 358.504 C 347.455 362.532, 353.030 355.748, 349.587 350.493 C 347.576 347.423, 345.697 347.335, 343.039 350.189 M 455.245 349.155 C 452.075 352.325, 455.492 358.469, 459.798 357.343 C 462.078 356.746, 463.447 353.580, 462.830 350.329 C 462.411 348.119, 457.102 347.298, 455.245 349.155 M 397.447 365.250 C 390.195 373.390, 341.148 425.534, 336.307 430.250 L 331.431 435 315.484 418.921 L 299.537 402.843 296.584 403.433 C 290.969 404.556, 284 413.137, 284 418.928 L 284 422.556 291.640 431.028 C 310.055 451.449, 328.359 470.052, 330.588 470.612 C 337.193 472.269, 338.130 471.415, 368.582 436 C 380.169 422.525, 395.767 404.830, 403.245 396.677 C 417.885 380.716, 420.580 376.655, 419.105 372.777 C 417.787 369.310, 413.202 364.156, 409.931 362.464 C 404.854 359.839, 401.626 360.559, 397.447 365.250 M 241.557 364.223 C 238.308 368.861, 240.624 373.813, 245.474 372.596 C 246.850 372.251, 248.718 370.834, 249.627 369.447 L 251.279 366.926 248.965 364.463 C 246.094 361.407, 243.586 361.326, 241.557 364.223 M 354.949 365.051 C 352.683 367.317, 353.041 370.588, 355.792 372.750 C 357.901 374.408, 358.283 374.352, 361.365 371.927 C 364.450 369.501, 364.730 366.971, 362.171 364.655 C 359.727 362.443, 357.431 362.569, 354.949 365.051 M 440.250 363.736 C 438.407 364.371, 438.731 368.446, 440.831 371.040 C 442.245 372.786, 443.268 373.150, 445.316 372.636 C 448.063 371.946, 450.086 367.604, 448.377 366.063 C 446.976 364.800, 441.616 363.266, 440.250 363.736 M 270.750 365.080 C 268.801 366.215, 268.452 370.108, 270.035 373.066 C 271.439 375.690, 275.515 375.531, 277.443 372.777 C 279.501 369.840, 279.407 368.407, 277 366 C 274.778 363.778, 273.347 363.567, 270.750 365.080 M 298.348 366.592 L 296.649 369.185 298.253 371.842 C 299.135 373.304, 300.826 374.649, 302.011 374.830 C 306.818 375.568, 310.082 368.301, 306.250 365.392 C 303.438 363.258, 300.211 363.748, 298.348 366.592 M 325.625 365.517 C 323.531 367.612, 323.575 368.190, 326.073 371.365 C 328.603 374.582, 332.912 374.860, 335.522 371.976 L 337.354 369.951 335.328 367.226 C 332.902 363.962, 328.038 363.105, 325.625 365.517 M 454.040 379.452 C 451.417 382.613, 455.954 388.365, 460.643 387.825 C 464.534 387.377, 466.172 382.952, 463.527 380.030 C 461.362 377.637, 455.826 377.300, 454.040 379.452 M 284.257 380.250 C 282.429 382.561, 282.266 384.484, 283.663 387.250 C 286.070 392.018, 293 389.775, 293 384.228 C 293 380.407, 286.478 377.440, 284.257 380.250 M 342.396 381.519 C 340.025 385.137, 341.461 389.375, 345.206 389.810 C 348.504 390.194, 351.298 386.465, 350.823 382.315 L 350.500 379.500 347.312 379.191 C 344.783 378.946, 343.766 379.428, 342.396 381.519 M 427.571 380.571 C 425.619 382.524, 425.618 383.009, 427.557 385.777 C 429.372 388.370, 433.173 388.684, 435.429 386.429 C 437.271 384.586, 437.371 383.562, 435.965 380.934 C 434.690 378.553, 429.801 378.342, 427.571 380.571 M 255.667 380.667 C 254.562 381.772, 254.917 386.517, 256.200 387.800 C 259.044 390.644, 264 388.483, 264 384.398 C 264 381.713, 257.521 378.812, 255.667 380.667 M 312.596 382.166 C 310.442 385.242, 310.574 386.251, 313.490 388.991 L 315.980 391.330 318.463 390.199 C 321.259 388.925, 322.805 384.506, 321.296 382.095 C 319.651 379.465, 314.459 379.507, 312.596 382.166 M 241.518 395.625 C 239.288 397.855, 239.968 400.904, 243.238 403.336 L 245.975 405.372 248.488 403.012 C 251.532 400.152, 251.610 399.032, 248.961 396.189 C 246.542 393.593, 243.761 393.382, 241.518 395.625 M 271.200 395.200 C 268.231 398.169, 271.555 406.875, 275.133 405.502 C 276.021 405.162, 277.570 403.357, 278.575 401.491 L 280.401 398.100 278.545 396.050 C 276.479 393.767, 273.032 393.368, 271.200 395.200 M 329.073 395.927 C 326.431 398.569, 326.438 401.182, 329.095 403.586 L 331.189 405.481 333.646 402.625 C 336.481 399.329, 336.393 397.331, 333.323 395.296 L 331.147 393.853 329.073 395.927 M 442.750 396.056 C 440.715 397.269, 440.554 398.927, 442.135 402.398 C 444.959 408.595, 451.724 404.830, 450.038 398 C 449.353 395.223, 445.756 394.264, 442.750 396.056 M 256.655 410.829 C 252.319 415.620, 258.279 424.321, 262.800 419.800 C 264.795 417.805, 264.300 411.231, 262.066 410.035 C 259.388 408.602, 258.560 408.724, 256.655 410.829 M 456.557 411.223 C 452.692 416.740, 456.463 422.966, 461.443 419.290 C 464.718 416.873, 465.554 413.269, 463.394 410.882 C 461.122 408.372, 458.460 408.504, 456.557 411.223 M 427.035 412.934 C 426.466 413.998, 426 415.728, 426 416.779 C 426 418.999, 428.974 422, 431.174 422 C 433.255 422, 436 418.774, 436 416.326 C 436 411.786, 429.056 409.159, 427.035 412.934 M 242.115 426.632 C 239.447 428.501, 239.393 432.393, 242 435 C 244.483 437.483, 246.211 437.530, 248.345 435.171 C 252.636 430.430, 247.244 423.039, 242.115 426.632 M 442.142 428.349 L 439.935 430.698 440.952 433.375 C 442.742 438.082, 448.501 438.169, 450.986 433.527 L 452.338 431 451 428.500 C 449.261 425.251, 445.119 425.180, 442.142 428.349 M 413.247 430.153 C 411.556 431.844, 411.670 436.481, 413.440 437.950 C 414.231 438.607, 416.135 438.999, 417.671 438.822 C 421.185 438.417, 423.260 433.813, 420.949 431.550 C 418.807 429.453, 414.693 428.707, 413.247 430.153 M 256.434 444.407 C 255.506 448.104, 257.612 451.180, 260.817 450.810 C 262.922 450.567, 263.569 449.894, 263.822 447.690 C 264.221 444.212, 262.500 442, 259.397 442 C 257.739 442, 256.859 442.715, 256.434 444.407 M 399.958 443.550 C 398.172 445.703, 399.850 452.355, 402.298 452.822 C 406.657 453.654, 408.770 446.912, 405.171 443.655 C 402.893 441.593, 401.604 441.567, 399.958 443.550 M 426.438 444.392 C 425.736 447.190, 428.169 452.467, 430.590 453.396 C 434.361 454.843, 437.164 448.426, 434.523 444.394 C 432.327 441.044, 427.278 441.043, 426.438 444.392 M 454.304 454.500 C 451.531 456.442, 440.429 484.393, 422.403 534.809 L 415.500 554.118 412 553.553 C 403.382 552.163, 381.947 551.804, 375.384 552.940 C 362.544 555.162, 347.746 561.148, 336 568.871 C 328.557 573.765, 314.707 587.156, 309.495 594.500 C 304.542 601.477, 299.525 611.173, 296.819 618.996 C 290.705 636.672, 290.031 659.905, 295.064 679.500 C 307.804 729.096, 350.925 760.276, 399.538 755.042 C 427.671 752.013, 450.409 740.022, 466.651 719.649 C 479.057 704.090, 485.995 687.096, 488.601 665.889 L 490.246 652.500 489.115 641.950 C 486.684 619.284, 479.316 602.086, 464.580 584.680 C 459.557 578.747, 447.486 568.856, 440.358 564.833 L 435.043 561.833 436.651 558.167 C 437.536 556.150, 439.934 550.330, 441.980 545.233 C 444.026 540.137, 445.914 535.753, 446.175 535.492 C 446.436 535.231, 455.380 545.926, 466.051 559.259 C 507.878 611.518, 552.736 666.101, 555.018 667.511 C 555.637 667.894, 566.377 668.139, 578.885 668.056 L 601.628 667.906 603.248 675.372 C 606.485 690.287, 615.140 707.709, 625.644 720.450 C 635.847 732.826, 655.156 745.768, 671 750.849 C 689.985 756.938, 715.644 756.424, 735.855 749.549 C 764.091 739.946, 787.207 714.825, 796.632 683.500 L 799.340 674.500 799.360 657.500 L 799.381 640.500 797.192 632.338 C 794.692 623.020, 788.312 606.915, 784.634 600.639 C 775.078 584.333, 759.458 570.257, 741.866 562.100 C 727.608 555.489, 722.209 554.517, 700 554.564 L 680.500 554.606 673 556.717 C 668.875 557.879, 664.760 559.122, 663.857 559.481 C 662.556 559.996, 660.594 557.250, 654.450 546.316 C 650.181 538.717, 644.058 528.024, 640.844 522.554 C 637.630 517.083, 635 511.538, 635 510.231 C 635 508.925, 637.794 501.588, 641.208 493.928 L 647.417 480 658.534 480 L 669.651 480 671.759 477.750 C 676.868 472.296, 677.250 466.049, 672.750 461.552 L 669.500 458.305 636.500 458.756 C 600.106 459.253, 600.041 459.265, 597.403 465.578 L 595.973 469 597.451 472.536 C 599.555 477.571, 603.647 479, 615.968 479 C 621.486 479, 626 479.381, 626 479.846 C 626 480.312, 624.264 484.249, 622.142 488.596 C 620.021 492.943, 617.960 497.531, 617.562 498.790 L 616.840 501.081 564.170 500.290 C 535.201 499.856, 499.892 499.500, 485.704 499.500 L 459.909 499.500 460.552 497 C 460.906 495.625, 462.212 490, 463.453 484.500 L 465.710 474.500 485.946 474 L 506.181 473.500 508.194 471.012 C 509.832 468.986, 510.128 467.452, 509.788 462.747 C 509.558 459.570, 508.815 456.414, 508.137 455.735 C 506.635 454.232, 492.966 453.236, 471.973 453.100 C 459.668 453.021, 456.001 453.311, 454.304 454.500 M 270.655 457.829 C 268.457 460.258, 268.562 463.293, 270.918 465.425 C 273.499 467.762, 277.112 467.074, 278.883 463.908 L 280.332 461.317 278.416 458.690 C 276.169 455.608, 272.984 455.255, 270.655 457.829 M 242 459 C 238.428 462.572, 240.165 468, 244.880 468 C 250.165 468, 252.905 462.034, 249.171 458.655 C 246.741 456.456, 244.433 456.567, 242 459 M 412.571 459.571 C 410.658 461.485, 410.659 461.440, 412.434 464.872 C 414.809 469.466, 416.645 470.528, 419.534 468.982 C 423.285 466.975, 423.008 461.573, 419.050 459.526 C 415.350 457.612, 414.525 457.618, 412.571 459.571 M 384.565 460.928 C 382.649 463.046, 383.109 466.216, 385.773 469.250 C 387.793 471.550, 388.250 471.478, 391.364 468.364 C 394.459 465.268, 394.702 462.946, 392.171 460.655 C 389.739 458.453, 386.706 458.562, 384.565 460.928 M 283.245 473.155 C 280.095 476.305, 283.547 482.277, 288.245 481.806 C 292.471 481.382, 293.946 478.781, 291.969 475.241 C 290.265 472.191, 285.378 471.022, 283.245 473.155 M 256.200 475.200 C 254.864 476.536, 254.636 479.902, 255.765 481.615 C 256.169 482.229, 257.437 483.022, 258.582 483.379 C 262.049 484.460, 265.741 478.557, 263.666 475.250 C 262.667 473.658, 257.775 473.625, 256.200 475.200 M 371.394 476.416 C 370.435 478.915, 371.447 483.265, 373.250 484.394 C 377.316 486.940, 381.301 479.156, 377.395 476.299 C 375.054 474.587, 372.073 474.645, 371.394 476.416 M 399.035 476.934 C 397.464 479.870, 397.788 482.498, 399.963 484.466 C 402.503 486.765, 404.731 485.845, 406.500 481.765 L 407.916 478.500 405.847 476.750 C 403.131 474.453, 400.323 474.529, 399.035 476.934 M 271.238 488.250 C 269.010 491.016, 268.851 495.595, 270.896 498.086 L 272.879 500.500 275.689 498.968 C 279.537 496.872, 279.930 492.839, 276.610 489.519 C 273.782 486.691, 272.700 486.435, 271.238 488.250 M 299.200 488.200 C 298.540 488.860, 298 490.795, 298 492.500 C 298 496.332, 299.566 498, 303.165 498 C 307.968 498, 309.801 491.375, 305.777 488.557 C 303.116 486.693, 300.831 486.569, 299.200 488.200 M 242.313 488.786 C 241.659 489.201, 240.684 490.701, 240.145 492.119 C 237.916 497.981, 244.453 502.653, 248.154 497.843 C 250.882 494.296, 250.484 491.302, 247.050 489.526 C 243.649 487.767, 243.862 487.800, 242.313 488.786 M 329.655 490.829 C 326.369 494.459, 328.115 500, 332.545 500 C 337.472 500, 339.751 493.340, 335.777 490.557 C 332.898 488.540, 331.677 488.594, 329.655 490.829 M 356.975 492.046 C 355.446 494.904, 356.157 500.083, 358.259 501.399 C 359.591 502.233, 360.681 502.129, 362.759 500.967 C 366.429 498.913, 366.757 495.666, 363.612 492.521 C 360.557 489.466, 358.437 489.315, 356.975 492.046 M 384.613 492.142 C 382.464 495.211, 382.573 496.250, 385.314 498.826 C 388.265 501.598, 390.478 501.583, 392.443 498.777 C 395.338 494.644, 394.114 491.820, 388.857 490.500 C 386.798 489.983, 385.875 490.341, 384.613 492.142 M 413.655 492.829 C 411.612 495.086, 411.519 498.356, 413.452 499.960 C 415.616 501.756, 418.238 500.839, 419.966 497.682 L 421.500 494.879 419.139 492.939 C 416.226 490.547, 415.729 490.537, 413.655 492.829 M 313.517 505.392 C 310.612 508.297, 310.355 510.212, 312.571 512.429 C 314.736 514.593, 318.603 514.397, 321 512 C 323.310 509.690, 323.510 508.031, 321.750 505.792 C 319.411 502.816, 316.246 502.663, 313.517 505.392 M 344.796 504.869 C 341.139 507.019, 339.266 510.612, 340.653 512.815 C 342.137 515.171, 344.672 515.445, 347.549 513.560 C 350.268 511.778, 350.863 507.454, 348.750 504.831 L 347.500 503.279 344.796 504.869 M 256.200 505.200 C 254.256 507.144, 254.764 512.477, 257.095 514.586 L 259.189 516.481 261.595 513.685 C 264.832 509.922, 264.764 506.241, 261.435 504.975 C 258.149 503.726, 257.653 503.747, 256.200 505.200 M 283.627 505.860 C 282.297 507.329, 282.156 508.281, 282.957 510.386 C 284.946 515.618, 291.426 515.184, 292.289 509.760 C 293.137 504.435, 287.296 501.805, 283.627 505.860 M 370.923 507.923 L 367.792 511.054 369.268 513.277 C 370.371 514.938, 371.724 515.500, 374.622 515.500 L 378.500 515.500 378.500 511.622 C 378.500 508.724, 377.938 507.371, 376.277 506.268 L 374.054 504.792 370.923 507.923 M 397.607 507.582 C 395.826 512.223, 398.866 516.375, 403.643 515.825 C 405.700 515.588, 406.733 514.728, 407.461 512.645 L 408.460 509.791 406.119 507.895 C 403.256 505.577, 398.444 505.400, 397.607 507.582 M 269.250 520.674 C 268.012 521.538, 267 523.289, 267 524.565 C 267 527.278, 270.505 530.099, 272.865 529.285 C 277.033 527.846, 278.459 521.851, 275.066 520.035 C 272.584 518.707, 271.975 518.774, 269.250 520.674 M 240.655 521.829 C 238.460 524.254, 238.567 526.298, 241.004 528.504 C 242.652 529.995, 243.447 530.117, 245.476 529.193 C 248.791 527.682, 249.933 523.156, 247.456 521.344 C 244.929 519.496, 242.617 519.661, 240.655 521.829 M 297.699 521.780 C 295.480 524.232, 295.550 526.283, 297.927 528.434 L 299.855 530.179 302.677 528.826 C 304.976 527.724, 305.500 526.826, 305.500 523.987 L 305.500 520.500 302.449 520.201 C 300.445 520.005, 298.814 520.548, 297.699 521.780 M 384.557 522.223 C 381.565 526.494, 383.150 531, 387.643 531 C 389.890 531, 393 527.678, 393 525.277 C 393 523.546, 389.343 520, 387.557 520 C 386.763 520, 385.413 521, 384.557 522.223 M 461 520.465 C 461 520.869, 473.488 536.846, 488.750 555.969 C 504.012 575.092, 525.688 602.297, 536.917 616.425 L 557.334 642.112 558.756 638.806 C 570.483 611.556, 606 524.106, 606 522.481 C 606 521.850, 605.438 521.321, 604.750 521.305 C 574.032 520.606, 461 519.945, 461 520.465 M 326.439 524.118 L 324.765 527.355 326.574 528.678 C 329.260 530.642, 331.373 530.296, 334.042 527.455 C 337.013 524.293, 335.817 521.652, 331.205 521.191 L 328.113 520.882 326.439 524.118 M 356.223 522.557 C 353.370 524.555, 353.200 529.502, 355.934 530.965 C 358.693 532.441, 360.465 532.254, 362.976 530.221 L 365.173 528.441 364.475 524.721 L 363.777 521 361.111 521 C 359.645 521, 357.445 521.701, 356.223 522.557 M 610.090 566.274 C 596.703 599.446, 587.282 621.831, 580.746 636 C 578.843 640.125, 576.967 644.513, 576.576 645.750 L 575.865 648 588.772 648 L 601.680 648 602.956 640.750 C 605.702 625.147, 612.182 609.109, 621.193 595.612 C 623.438 592.250, 629.841 585, 635.423 579.500 L 645.572 569.500 640.250 560.500 C 637.323 555.550, 632.655 547.337, 629.878 542.250 C 627.100 537.163, 624.529 533.011, 624.164 533.024 C 623.799 533.037, 617.466 548, 610.090 566.274 M 255.607 536.582 C 254.422 539.669, 255.032 541.975, 257.451 543.560 C 262.295 546.734, 267.626 542.131, 264.548 537.433 C 262.645 534.528, 256.615 533.954, 255.607 536.582 M 283.200 536.200 C 281.865 537.535, 281.636 540.909, 282.765 542.600 C 284.944 545.864, 291.979 546.002, 292.014 542.782 C 292.021 542.077, 292.276 540.573, 292.580 539.441 C 293.484 536.078, 285.932 533.468, 283.200 536.200 M 313.250 536.524 C 308.997 539.528, 311.225 545.886, 316.559 545.968 C 320.595 546.031, 322.151 543.879, 321.245 539.489 C 320.580 536.267, 319.948 535.446, 317.961 535.217 C 316.607 535.061, 314.488 535.649, 313.250 536.524 M 385 574.033 C 366.548 575.692, 350.967 583, 338.008 596.075 C 329.807 604.350, 325.621 610.707, 320.487 622.681 C 311.946 642.602, 312.103 662.877, 320.976 685.809 C 329.314 707.358, 344.249 721.707, 366.054 729.117 L 375.500 732.327 387 732.769 C 401.568 733.330, 412.408 730.968, 426 724.273 C 433.771 720.445, 436.956 718.127, 443.500 711.536 C 452.861 702.107, 459.865 690.932, 464.340 678.286 L 467.449 669.500 467.474 653 C 467.503 634.327, 466.901 631.646, 459.390 617 C 453.030 604.599, 445.735 595.509, 436.332 588.270 L 428.165 581.982 423.167 594.741 C 420.418 601.758, 414.294 618.525, 409.559 632 C 404.824 645.475, 400.396 658.032, 399.720 659.905 C 398.899 662.176, 397.251 663.952, 394.769 665.240 L 391.048 667.171 387.540 666.013 C 380.146 663.573, 377.951 655.887, 382.020 646.688 C 383.131 644.177, 389.441 627.165, 396.042 608.883 C 404.103 586.561, 407.714 575.314, 407.037 574.637 C 405.660 573.260, 396.414 573.006, 385 574.033 M 684.750 577.264 C 678.837 578.402, 674 579.782, 674 580.330 C 674 580.878, 682.774 598.599, 693.497 619.709 L 712.994 658.092 711.070 661.863 C 710.012 663.937, 708.385 666.265, 707.455 667.037 L 705.764 668.441 665.382 668.123 C 640.863 667.930, 625 668.172, 625 668.738 C 625 670.692, 629.307 682.673, 631.737 687.478 C 642.627 709.011, 661.695 724.710, 682.948 729.640 C 692.471 731.849, 710.571 731.557, 720.500 729.034 C 734.228 725.546, 742.287 720.914, 752.571 710.598 C 767.538 695.587, 774.704 681.772, 777.059 663.391 C 779.042 647.904, 776.027 632.936, 767.513 616 C 761.943 604.921, 758.431 600.502, 749 592.705 C 738.608 584.113, 729.203 579.504, 716.872 576.960 C 705.234 574.559, 698.467 574.623, 684.750 577.264 M 648.871 596.760 C 640.851 605.270, 635.564 613.221, 631.482 622.912 C 628.179 630.752, 625 641.985, 625 645.814 L 625 648 655.554 648 L 686.109 648 671.432 619 C 663.359 603.050, 656.414 590, 655.998 590 C 655.583 590, 652.375 593.042, 648.871 596.760" stroke="none" fill="#056d28" fill-rule="evenodd"/></svg>