<?xml version="1.0" encoding="UTF-8" standalone="no"?>
<svg
   version="1.0"
   width="1420.000000pt"
   height="322.000000pt"
   viewBox="0 0 1420.000000 322.000000"
   preserveAspectRatio="xMidYMid meet"
   id="svg8"
   sodipodi:docname="ZtZnIB01 (1).svg"
   inkscape:version="1.4.2 (ebf0e940, 2025-05-08)"
   xmlns:inkscape="http://www.inkscape.org/namespaces/inkscape"
   xmlns:sodipodi="http://sodipodi.sourceforge.net/DTD/sodipodi-0.dtd"
   xmlns:xlink="http://www.w3.org/1999/xlink"
   xmlns="http://www.w3.org/2000/svg"
   xmlns:svg="http://www.w3.org/2000/svg">
  <defs
     id="defs8">
    <linearGradient
       id="linearGradient19"
       inkscape:collect="always">
      <stop
         style="stop-color:#008000;stop-opacity:0.69999999;"
         offset="0"
         id="stop18" />
      <stop
         style="stop-color:#3dd100;stop-opacity:1;"
         offset="1"
         id="stop19" />
    </linearGradient>
    <linearGradient
       id="linearGradient16"
       inkscape:collect="always">
      <stop
         style="stop-color:#005600;stop-opacity:0.69803923;"
         offset="0"
         id="stop16" />
      <stop
         style="stop-color:#3dd100;stop-opacity:1;"
         offset="1"
         id="stop17" />
    </linearGradient>
    <linearGradient
       inkscape:collect="always"
       xlink:href="#linearGradient16"
       id="linearGradient17"
       x1="6794.8271"
       y1="4743.3145"
       x2="6794.8271"
       y2="6053.6602"
       gradientUnits="userSpaceOnUse" />
    <linearGradient
       inkscape:collect="always"
       xlink:href="#linearGradient19"
       id="linearGradient18"
       x1="8211.5"
       y1="4807.5"
       x2="8211.5"
       y2="5990.5"
       gradientUnits="userSpaceOnUse" />
  </defs>
  <sodipodi:namedview
     id="namedview8"
     pagecolor="#ffffff"
     bordercolor="#000000"
     borderopacity="0.25"
     inkscape:showpageshadow="2"
     inkscape:pageopacity="0.0"
     inkscape:pagecheckerboard="0"
     inkscape:deskcolor="#d1d1d1"
     inkscape:document-units="pt"
     inkscape:zoom="0.22501337"
     inkscape:cx="1102.1567"
     inkscape:cy="739.95604"
     inkscape:window-width="1512"
     inkscape:window-height="916"
     inkscape:window-x="834"
     inkscape:window-y="1478"
     inkscape:window-maximized="1"
     inkscape:current-layer="g8" />
  <metadata
     id="metadata1">
Created by potrace 1.10, written by Peter Selinger 2001-2011
</metadata>
  <g
     transform="matrix(0.16101059,0,0,-0.17518219,-19.298875,1086.3871)"
     fill="#080808"
     stroke="none"
     id="g8">
    <path
       d="M 624,6063 C 18,5847 26,4905 635,4728 c 195,-57 482,-20 638,82 l 43,28 -40,109 -40,108 -85,-47 c -329,-185 -675,15 -678,392 -3,367 330,567 657,393 108,-57 109,-57 149,50 44,114 39,122 -110,190 -158,73 -390,86 -545,30 z"
       id="path1"
       style="fill:#ffc824;fill-opacity:1" />
    <path
       d="m 6566,6064 c -530,-189 -579,-1049 -73,-1296 473,-232 957,83 957,621 0,511 -428,838 -884,675 z m 320,-225 c 370,-103 382,-771 15,-881 -279,-84 -477,127 -457,484 18,304 197,465 442,397 z"
       id="path2"
       style="fill:url(#linearGradient17);stroke-width:1.0003157;stroke-dasharray:none" />
    <path
       d="m 7620,5399 v -681 l 145,6 145,6 -5,299 c -4,290 -3,298 33,260 20,-21 137,-158 261,-304 l 224,-265 h 190 190 l -57,67 c -31,37 -170,194 -310,348 l -253,279 250,288 c 138,159 270,308 292,333 l 42,45 h -182 -181 l -252,-299 c -328.8842,-349.6471 -257.3595,-420.6812 -237,18 l 11,281 h -153 -153 z"
       id="path3"
       sodipodi:nodetypes="cccccccccccccccccccccccc"
       style="fill:url(#linearGradient18);fill-opacity:1;stroke-width:1.0003157;stroke-dasharray:none" />
    <path
       d="m 4922,5739 c -67,-9 -105,-30 -155,-86 -83,-90 -80,-90 -70,7 l 7,80 h -132 -132 v -510 -510 h 140 140 v 305 c 0,390 62,500 264,471 48,-6 69,42 74,177 2,74 -18,84 -136,66 z"
       id="path4"
       style="fill:#ffc824;fill-opacity:1" />
    <path
       d="m 1700,5727 c -16,-5 -68,-23 -115,-40 l -85,-30 v -119 -119 l 85,44 c 149,75 339,76 414,1 114,-114 91,-138 -144,-148 -262,-10 -359,-54 -418,-189 -133,-300 248,-556 550,-369 l 68,42 11,-41 c 10,-36 24,-40 127,-35 l 117,6 2,300 c 2,488 -16,560 -170,665 -66,44 -343,64 -442,32 z m 360,-612 c -1,-183 -282,-302 -361,-152 -57,105 19,176 211,198 66,7 127,15 135,16 8,2 15,-26 15,-62 z"
       id="path5"
       style="fill:#ffc824;fill-opacity:1" />
    <path
       d="m 2645,5701 c -110,-50 -165,-140 -165,-271 0,-182 88,-260 344,-310 143,-28 216,-81 184,-134 -58,-96 -210,-105 -385,-22 -125,59 -125,59 -155,-43 -31,-106 -32,-105 84,-160 375,-176 797,50 686,367 -36,104 -117,158 -303,202 -200,48 -258,105 -184,179 45,44 200,39 307,-10 48,-22 89,-37 91,-34 50,81 68,185 36,204 -135,80 -398,96 -540,32 z"
       id="path6"
       style="fill:#ffc824;fill-opacity:1" />
    <path
       d="m 3630,5703 c -405,-193 -354,-881 73,-984 177,-42 441,4 541,95 35,31 21,75 -56,182 -2,4 -41,-12 -85,-35 -179,-91 -398,-41 -464,105 l -37,84 351,5 352,6 -14,134 c -35,358 -354,554 -661,408 z m 319,-194 c 42,-28 91,-121 91,-172 0,-9 -95,-17 -212,-17 h -212 l 13,55 c 35,142 202,211 320,134 z"
       id="path7"
       style="fill:#ffc824;fill-opacity:1" />
    <path
       d="m 5350,5703 c -392,-179 -369,-840 34,-974 364,-121 680,111 680,499 0,391 -365,634 -714,475 z m 316,-205 c 200,-91 159,-529 -54,-569 -159,-30 -272,91 -272,290 0,236 146,361 326,279 z"
       id="path8"
       style="fill:#ffc824;fill-opacity:1" />
  </g>
</svg>
