<?xml version="1.0" standalone="no"?>
<!DOCTYPE svg PUBLIC "-//W3C//DTD SVG 20010904//EN"
 "http://www.w3.org/TR/2001/REC-SVG-20010904/DTD/svg10.dtd">
<svg version="1.0" xmlns="http://www.w3.org/2000/svg"
 width="900.000000pt" height="636.000000pt" viewBox="0 0 900.000000 636.000000"
 preserveAspectRatio="xMidYMid meet">
<metadata>
Created by potrace 1.10, written by Peter Selinger 2001-2011
</metadata>
<g transform="translate(0.000000,636.000000) scale(0.100000,-0.100000)"
fill="#000000" stroke="none">
<path d="M3975 5406 c-28 -14 -74 -45 -102 -68 -28 -24 -92 -77 -143 -118
-173 -141 -425 -349 -495 -410 -67 -58 -192 -162 -264 -220 -31 -25 -68 -55
-81 -67 -93 -80 -338 -286 -579 -487 -280 -233 -396 -330 -401 -335 -3 -4 -30
-26 -60 -51 -30 -25 -57 -47 -60 -50 -3 -3 -68 -57 -145 -120 -260 -212 -295
-251 -295 -330 0 -26 5 -62 11 -81 15 -44 74 -106 113 -118 17 -5 153 -11 303
-13 247 -4 274 -6 292 -22 20 -19 21 -28 23 -1025 l3 -1006 27 -55 c35 -71
115 -160 175 -195 95 -56 147 -66 403 -71 l235 -6 85 -35 c177 -75 309 -120
477 -162 203 -51 309 -56 1013 -44 l625 10 77 33 c107 47 168 103 215 198 32
64 39 88 41 151 3 54 -1 89 -13 121 -33 88 -32 94 23 158 27 31 64 85 81 119
37 72 62 200 50 253 -5 19 -9 55 -9 78 0 39 6 50 54 104 61 67 116 172 141
267 13 52 15 85 9 160 -10 122 -9 126 31 186 108 163 141 294 161 640 3 66 11
126 16 133 8 9 81 12 303 12 311 0 339 3 388 49 35 32 67 103 67 145 -1 62
-34 99 -231 262 -251 207 -310 257 -439 364 -76 63 -171 142 -211 175 -119 98
-109 43 -109 621 l0 501 -22 20 c-51 46 -60 48 -328 47 -252 0 -256 0 -300
-25 -24 -13 -55 -39 -67 -58 -22 -32 -23 -44 -23 -196 0 -199 -3 -205 -82
-147 -55 41 -210 175 -314 271 -33 31 -136 121 -228 201 -304 262 -345 284
-441 236z m115 -1154 c68 -32 167 -132 222 -224 64 -108 89 -201 95 -353 9
-223 -34 -417 -141 -647 -33 -70 -46 -110 -46 -142 0 -80 -41 -76 712 -76 641
0 664 -1 695 -20 42 -25 90 -92 104 -144 24 -90 -14 -222 -82 -280 -76 -65
-88 -66 -616 -66 -396 0 -479 -2 -502 -15 -47 -24 -56 -78 -18 -112 49 -45 48
-45 505 -42 288 1 446 -2 463 -9 41 -17 87 -80 99 -136 21 -101 -24 -216 -100
-260 -34 -20 -54 -21 -510 -26 -438 -5 -477 -6 -502 -23 -37 -26 -45 -69 -19
-110 11 -19 32 -39 46 -45 18 -9 129 -12 373 -12 370 0 408 -4 454 -47 30 -29
58 -100 58 -148 0 -58 -29 -123 -70 -155 l-38 -30 -459 0 -460 0 -34 -23 c-28
-19 -35 -30 -37 -64 -4 -51 9 -78 51 -103 30 -19 53 -20 416 -20 l384 0 34
-26 c45 -34 63 -73 63 -136 0 -65 -21 -102 -80 -143 l-43 -30 -691 0 c-760 0
-677 -5 -881 56 -94 28 -232 87 -404 173 l-185 91 -201 5 c-217 6 -224 8 -271
69 -18 25 -19 51 -22 778 -2 677 -1 753 13 767 13 13 39 16 123 16 178 1 301
44 422 149 80 68 427 413 542 537 75 81 160 195 195 261 6 13 24 58 40 100 27
76 28 84 30 298 1 175 5 231 18 270 44 132 121 161 255 97z"/>
<path d="M7480 2607 c-56 -28 -157 -134 -310 -326 -73 -92 -289 -349 -372
-444 -43 -49 -119 -140 -170 -203 -77 -95 -97 -114 -119 -114 -17 0 -34 8 -42
20 -8 11 -29 37 -48 58 -237 260 -239 262 -326 262 -86 0 -157 -52 -200 -146
-22 -50 -25 -66 -21 -139 4 -73 8 -88 33 -122 32 -42 202 -242 220 -258 6 -5
36 -41 66 -80 86 -107 193 -213 233 -230 56 -24 134 -19 194 11 55 27 149 126
297 309 64 80 124 149 229 265 18 19 81 96 141 170 116 144 234 285 301 359
91 102 188 229 210 276 41 87 26 178 -43 260 -74 88 -184 117 -273 72z"/>
</g>
</svg>
