<svg xmlns="http://www.w3.org/2000/svg" width="1024" height="1024" viewBox="0 0 1024 1024" version="1.1"><path d="M 347.500 221.014 C 300.068 226.332, 255.703 250.988, 225.048 289.069 C 204.729 314.310, 192.613 341.533, 187.471 373.500 C 185.233 387.418, 185.067 394.292, 184.606 492.250 L 184.198 579 204.054 579 L 223.909 579 224.404 575.750 C 224.676 573.962, 225.129 531.100, 225.411 480.500 C 225.854 401.011, 226.148 387.208, 227.577 379 C 232.407 351.253, 246.473 324.387, 266.911 303.872 C 287.113 283.595, 311.011 271.083, 338.429 266.429 C 351.612 264.191, 374.758 264.903, 386.797 267.916 C 426.353 277.816, 461.366 309.336, 477.073 349.186 C 482.290 362.421, 484.172 372.797, 484.723 391.360 L 485.253 409.220 601.877 408.492 C 666.019 408.091, 718.681 407.598, 718.901 407.397 C 719.122 407.195, 719.219 400.416, 719.117 392.332 C 718.462 340.643, 692.623 290.380, 649.083 256.104 C 628.304 239.746, 606.868 229.836, 578 223.242 L 566.500 220.615 460.500 220.422 C 402.200 220.316, 351.350 220.582, 347.500 221.014" stroke="none" fill="#fbcc0c" fill-rule="evenodd"/><path d="M 337.025 266.519 C 288.206 275.815, 248.055 311.813, 232.154 360.543 C 225.985 379.447, 225.973 379.659, 225.411 480.500 C 225.129 531.100, 224.676 573.962, 224.404 575.750 L 223.909 579 204.455 579 L 185 579 185 585 L 185 591 234.309 591 C 274.549 591, 283.963 591.253, 285.497 592.374 C 287.326 593.711, 287.315 593.904, 285.092 599.624 C 283.836 602.856, 281.729 608.326, 280.410 611.779 C 267.479 645.638, 273.202 691.392, 294.259 722.500 C 307.703 742.361, 321.108 754.126, 340.376 762.978 C 362.906 773.327, 384.030 776.120, 413 772.578 C 419.325 771.805, 429.703 770.860, 436.063 770.478 C 447.405 769.797, 447.768 769.842, 455.063 772.830 C 472.804 780.098, 478.055 782.394, 488.954 787.646 C 495.304 790.707, 505.675 795.588, 512 798.493 C 536.596 809.791, 536.981 809.791, 562.916 798.397 C 573.687 793.665, 588.350 787.343, 595.500 784.348 C 602.650 781.352, 614.538 776.372, 621.917 773.280 L 635.334 767.659 643.417 769.315 C 656.253 771.945, 683.498 775, 694.120 775 C 728.301 775, 760.824 762.219, 783.032 740.060 C 801.987 721.146, 812.076 701.011, 816.036 674.195 C 818.400 658.183, 818.446 654.550, 816.475 639.301 C 814.633 625.045, 811.610 615.378, 804.030 599.500 C 792.304 574.937, 775.602 557.901, 752.500 546.938 C 742.672 542.274, 726.698 537, 722.400 537 C 721.198 537, 719.941 536.288, 719.607 535.418 C 719.273 534.548, 719 505.462, 719 470.783 L 719 407.730 602.127 408.474 L 485.253 409.218 484.723 391.359 C 484.172 372.797, 482.290 362.421, 477.073 349.186 C 461.367 309.340, 426.442 277.893, 386.797 267.901 C 375.904 265.155, 348.221 264.387, 337.025 266.519 M 371.200 288.200 C 369.355 290.045, 369.772 293.484, 372.095 295.586 C 374.160 297.455, 374.218 297.449, 376.095 295.131 C 377.143 293.837, 378 291.751, 378 290.496 C 378 287.246, 373.630 285.770, 371.200 288.200 M 314.554 289.337 C 313.070 290.422, 312.903 291.210, 313.672 293.516 C 315.629 299.387, 321.141 299.341, 321.836 293.448 C 322.365 288.960, 318.248 286.636, 314.554 289.337 M 343.500 290 C 341.833 295.252, 346.936 298.430, 349.168 293.530 C 350.029 291.641, 349.995 290.699, 349.025 289.530 C 347.236 287.375, 344.253 287.629, 343.500 290 M 400.750 289.080 C 398.740 290.251, 398.401 295.001, 400.200 296.800 C 402.174 298.774, 403.856 298.179, 405.547 294.909 C 407.027 292.047, 407.017 291.677, 405.418 289.909 C 403.448 287.733, 403.153 287.680, 400.750 289.080 M 412.473 303.030 C 411.019 304.636, 410.834 305.627, 411.588 307.771 C 412.750 311.074, 415.486 311.775, 418.074 309.433 C 421.388 306.434, 420.022 301, 415.955 301 C 415.050 301, 413.483 301.914, 412.473 303.030 M 300.575 303.917 C 297.305 307.530, 302.442 312.439, 306.962 310.020 C 309.492 308.666, 309.585 305.840, 307.171 303.655 C 304.769 301.481, 302.705 301.563, 300.575 303.917 M 329.200 303.200 C 325.968 306.432, 329.594 311.898, 334.035 310.489 C 336.140 309.821, 337.581 305.956, 336.639 303.502 C 335.948 301.701, 330.903 301.497, 329.200 303.200 M 357.655 303.829 C 355.616 306.082, 355.538 308.371, 357.445 309.954 C 359.849 311.950, 363.355 310.799, 364.457 307.653 C 365.286 305.287, 365.130 304.568, 363.536 303.403 C 360.984 301.537, 359.641 301.634, 357.655 303.829 M 385.046 305.445 C 384.386 306.240, 383.994 307.927, 384.173 309.195 C 384.663 312.648, 389.066 312.350, 390.793 308.746 C 391.519 307.231, 391.836 305.544, 391.497 304.996 C 390.577 303.506, 386.415 303.796, 385.046 305.445 M 428.200 316.200 C 426.543 317.857, 426.694 322.501, 428.452 323.960 C 430.686 325.815, 433.352 324.783, 434.459 321.636 C 435.319 319.190, 435.131 318.524, 433.119 316.895 C 430.376 314.674, 429.807 314.593, 428.200 316.200 M 285.095 318.607 C 282.244 322.231, 283.809 325.245, 288.316 324.808 C 290.972 324.551, 291.553 324.034, 291.822 321.690 C 292.167 318.680, 290.579 316, 288.450 316 C 287.732 316, 286.222 317.173, 285.095 318.607 M 398.667 317.667 C 397.730 318.603, 397.864 323.237, 398.874 324.830 C 399.353 325.586, 400.966 326.018, 402.609 325.830 C 408.073 325.206, 406.556 317, 400.976 317 C 400.072 317, 399.033 317.300, 398.667 317.667 M 343.190 321.750 C 343.458 324.993, 343.867 325.542, 346.215 325.813 C 348.421 326.067, 349.052 325.643, 349.577 323.550 C 350.381 320.348, 348.579 318, 345.317 318 C 343.112 318, 342.909 318.357, 343.190 321.750 M 371.086 319.397 C 370.404 320.218, 369.994 321.927, 370.173 323.195 C 370.432 325.017, 371.129 325.500, 373.500 325.500 C 376.262 325.500, 376.500 325.222, 376.500 322 C 376.500 319.213, 376.075 318.439, 374.412 318.202 C 373.264 318.038, 371.767 318.575, 371.086 319.397 M 313.655 320.829 C 311.469 323.244, 311.566 324.698, 314 326 C 317.033 327.623, 320 325.628, 320 321.965 C 320 319.521, 319.588 319, 317.655 319 C 316.365 319, 314.565 319.823, 313.655 320.829 M 444.212 332.188 C 443.546 332.854, 443 334.885, 443 336.700 C 443 339.262, 443.420 340, 444.878 340 C 447.831 340, 449.334 337.503, 448.282 334.346 C 447.226 331.179, 445.916 330.484, 444.212 332.188 M 414.655 333.829 C 412.577 336.125, 412.548 338.405, 414.569 340.427 C 416.652 342.509, 419.536 340.985, 420.457 337.316 C 420.964 335.296, 420.682 334.240, 419.381 333.289 C 417.074 331.603, 416.623 331.654, 414.655 333.829 M 271.005 334.991 C 268.317 340.013, 272.061 343.870, 276.484 340.635 C 278.131 339.431, 278.291 338.726, 277.457 336.347 C 276.198 332.754, 272.606 331.999, 271.005 334.991 M 328.200 334.200 C 327.540 334.860, 327 335.975, 327 336.677 C 327 338.655, 331.642 341.248, 333.900 340.532 C 336.409 339.735, 337.550 336.368, 335.960 334.452 C 334.501 332.694, 329.857 332.543, 328.200 334.200 M 385.200 334.200 C 383.459 335.941, 383.725 338.443, 385.937 341.139 C 387.482 343.021, 388.229 343.284, 389.621 342.433 C 393.187 340.254, 393.597 338.265, 391.042 335.545 C 388.395 332.727, 386.995 332.405, 385.200 334.200 M 299.491 337.041 C 298.293 342.494, 303.894 345.521, 306.124 340.626 C 307.589 337.413, 305.745 334, 302.544 334 C 300.700 334, 300.007 334.690, 299.491 337.041 M 356.031 335.942 C 353.909 339.907, 357.965 343.578, 361.789 341.152 C 362.498 340.702, 363.173 339.021, 363.289 337.417 C 363.477 334.817, 363.155 334.467, 360.316 334.192 C 357.930 333.960, 356.857 334.399, 356.031 335.942 M 427.438 349.068 C 425.729 350.957, 425.697 351.369, 427.068 353.811 C 428.885 357.049, 431.197 357.660, 433.379 355.479 C 435.594 353.263, 435.428 349.299, 433.066 348.035 C 430.342 346.577, 429.563 346.720, 427.438 349.068 M 256.571 349.571 C 254.432 351.710, 254.598 354.326, 257.010 356.509 C 258.763 358.095, 259.338 358.157, 261.510 356.995 C 264.153 355.580, 264.663 353.107, 262.965 349.934 C 261.714 347.596, 258.717 347.426, 256.571 349.571 M 313.245 349.155 C 310.768 351.632, 312.803 358, 316.071 358 C 318.186 358, 321.112 353.796, 320.811 351.189 C 320.560 349.017, 319.922 348.443, 317.495 348.205 C 315.842 348.043, 313.930 348.470, 313.245 349.155 M 369.337 349.564 C 368.571 351.561, 370.514 355.876, 372.529 356.649 C 374.459 357.390, 378 354.304, 378 351.880 C 378 348.458, 370.528 346.460, 369.337 349.564 M 399.667 348.667 C 398.494 349.839, 398.951 353.485, 400.557 355.777 C 402.563 358.642, 403.575 358.579, 405.619 355.459 C 406.952 353.424, 407.061 352.428, 406.163 350.459 C 405.088 348.098, 401.284 347.049, 399.667 348.667 M 284.381 351.541 C 283.048 353.576, 282.939 354.572, 283.837 356.541 C 285.820 360.893, 292 358.969, 292 354 C 292 352.127, 291.302 350.697, 290.066 350.035 C 287.178 348.490, 286.213 348.745, 284.381 351.541 M 343.655 350.829 C 340.345 354.486, 342.656 359.879, 346.950 358.516 C 349.472 357.715, 350.552 353.899, 349.050 351.093 C 347.670 348.515, 345.830 348.425, 343.655 350.829 M 455.667 349.667 C 454.586 350.747, 454.900 353.481, 456.329 355.435 C 458.329 358.170, 462 355.923, 462 351.965 C 462 349.376, 461.641 349, 459.167 349 C 457.608 349, 456.033 349.300, 455.667 349.667 M 398.048 365.817 C 395.546 368.400, 384.061 380.636, 372.524 393.007 C 344.189 423.393, 332.845 435, 331.487 435 C 330.860 435, 323.584 428.025, 315.318 419.500 C 303.488 407.301, 299.732 404, 297.679 404 C 292.272 404, 283.127 415.386, 284.414 420.515 C 284.982 422.777, 319.192 460.494, 326.351 466.750 C 329.956 469.900, 333.723 470.811, 337.366 469.413 C 338.944 468.808, 354.128 452.048, 368.998 434.500 C 373.658 429, 384.678 416.485, 393.486 406.689 C 421.028 376.057, 420.722 376.522, 417.163 370.764 C 414.070 365.759, 410.595 362.924, 406.394 361.976 C 402.748 361.154, 402.412 361.309, 398.048 365.817 M 242.200 364.200 C 240.718 365.682, 240.621 370.648, 242.057 371.535 C 243.823 372.627, 247.874 371.103, 249.051 368.905 C 251.089 365.097, 245.288 361.112, 242.200 364.200 M 355.079 365.404 C 353.613 367.171, 354.665 371.657, 356.731 372.450 C 358.813 373.249, 363 370.395, 363 368.177 C 363 364.362, 357.533 362.448, 355.079 365.404 M 440.309 365.636 C 439.014 369.011, 443.784 373.254, 446.416 371.070 C 449.005 368.921, 448.320 366.307, 444.851 365.098 C 440.882 363.714, 441.055 363.694, 440.309 365.636 M 270.667 365.667 C 269.562 366.772, 269.917 371.517, 271.200 372.800 C 273.744 375.344, 278 373.051, 278 369.137 C 278 366.404, 272.522 363.811, 270.667 365.667 M 298.932 367.126 C 297.326 370.128, 299.211 374, 302.279 374 C 305.164 374, 307 372.250, 307 369.500 C 307 364.968, 301.028 363.211, 298.932 367.126 M 325.584 366.641 C 325.238 367.543, 325.668 369.370, 326.539 370.700 C 327.751 372.549, 328.849 373.045, 331.211 372.809 C 335.465 372.383, 336.993 369.755, 334.553 367.059 C 332.243 364.506, 326.506 364.239, 325.584 366.641 M 285.204 380.570 C 282.522 382.448, 282.374 385.124, 284.829 387.345 C 287.082 389.384, 289.371 389.462, 290.954 387.555 C 292.629 385.537, 291.887 381.985, 289.454 380.378 C 287.713 379.228, 287.078 379.257, 285.204 380.570 M 344.061 380.939 C 340.755 384.245, 341.646 389, 345.572 389 C 348.376 389, 350.250 385.998, 349.812 382.209 C 349.418 378.806, 346.777 378.223, 344.061 380.939 M 454.359 380.508 C 454.040 381.337, 454.532 383.163, 455.452 384.566 C 457.698 387.995, 463.323 387.745, 463.827 384.195 C 464.006 382.927, 463.614 381.240, 462.954 380.445 C 461.344 378.505, 455.110 378.551, 454.359 380.508 M 428.250 380.639 C 426.273 381.474, 426.794 384.820, 429.093 386.050 C 430.244 386.666, 432.298 386.891, 433.656 386.550 C 435.639 386.053, 436.064 385.395, 435.813 383.215 C 435.556 380.988, 434.961 380.465, 432.500 380.306 C 430.850 380.199, 428.938 380.349, 428.250 380.639 M 255.738 382.250 C 254.787 384.750, 256.857 388, 259.400 388 C 262.675 388, 264.027 384.224, 261.431 382.326 C 259.146 380.655, 256.359 380.618, 255.738 382.250 M 313.200 382.200 C 310.286 385.114, 313.947 390.786, 317.926 389.523 C 320.123 388.826, 321.600 385.005, 320.639 382.502 C 319.948 380.701, 314.903 380.497, 313.200 382.200 M 242.238 396.162 C 240.238 398.162, 240.807 400.827, 243.629 402.677 C 246.178 404.347, 246.316 404.328, 248.156 402.056 C 249.822 399.999, 249.884 399.456, 248.662 397.606 C 247.014 395.112, 243.973 394.427, 242.238 396.162 M 271.667 395.667 C 270.406 396.927, 271.001 402.756, 272.519 404.016 C 275.453 406.451, 280.470 399.477, 277.960 396.452 C 276.723 394.961, 272.855 394.478, 271.667 395.667 M 329.200 396.200 C 326.238 399.162, 329.327 405.633, 332.461 403.032 C 334.619 401.241, 335.333 398.106, 333.960 396.452 C 332.495 394.686, 330.803 394.597, 329.200 396.200 M 442.337 397.564 C 441.296 400.276, 443.742 404.176, 446.260 403.818 C 448.056 403.563, 448.562 402.757, 448.810 399.750 C 449.108 396.158, 448.990 396, 446.029 396 C 444.147 396, 442.702 396.612, 442.337 397.564 M 257.278 411.250 C 255.366 413.721, 255.177 415.807, 256.672 417.942 C 258.926 421.160, 262.213 420.270, 263.399 416.120 C 264.210 413.278, 264.065 412.521, 262.491 411.370 C 260.163 409.667, 258.531 409.630, 257.278 411.250 M 457.217 411.250 C 455.156 413.758, 455.357 418.816, 457.551 419.658 C 459.409 420.371, 464 416.361, 464 414.026 C 464 410.540, 459.361 408.642, 457.217 411.250 M 427.390 413.427 C 426.478 415.801, 427.394 419.229, 429.250 420.393 C 432.876 422.666, 436.799 416.872, 433.954 413.445 C 432.411 411.586, 428.101 411.574, 427.390 413.427 M 242.200 427.200 C 239.081 430.319, 243.203 437.614, 246.809 435.357 C 249.101 433.922, 249.476 429.619, 247.483 427.626 C 245.552 425.695, 243.843 425.557, 242.200 427.200 M 441.932 429.126 C 440.313 432.153, 442.211 436, 445.324 436 C 447.908 436, 451 433.206, 451 430.871 C 451 426.791, 443.912 425.427, 441.932 429.126 M 413.281 431.250 C 412.751 431.938, 412.601 433.625, 412.948 435 C 413.430 436.909, 414.329 437.573, 416.755 437.811 C 419.490 438.078, 420.026 437.744, 420.613 435.405 C 421.121 433.382, 420.826 432.346, 419.456 431.344 C 417.153 429.660, 414.538 429.620, 413.281 431.250 M 257.336 444.566 C 256.456 446.861, 258.203 449.426, 260.921 449.829 C 262.882 450.119, 263.102 449.773, 262.819 446.829 C 262.572 444.256, 261.988 443.427, 260.246 443.180 C 258.831 442.979, 257.747 443.495, 257.336 444.566 M 400.123 444.352 C 399.295 445.349, 399.294 446.544, 400.117 448.906 C 401.582 453.108, 405.332 452.965, 405.822 448.690 C 406.353 444.063, 402.681 441.269, 400.123 444.352 M 427 446 C 427 448.818, 429.915 453, 431.879 453 C 432.362 453, 433.300 451.691, 433.962 450.091 C 435.644 446.031, 433.936 443, 429.965 443 C 427.337 443, 427 443.341, 427 446 M 453.834 455.653 C 451.527 458.233, 436.728 496.218, 421.449 538.776 C 418.827 546.078, 416.191 552.705, 415.591 553.502 C 414.639 554.766, 413.480 554.767, 406.500 553.510 C 395.346 551.502, 384.487 551.659, 373.021 553.996 C 332.150 562.325, 300.252 594.572, 293.505 634.381 C 287.999 666.870, 298.904 703.072, 321.353 726.831 C 326.129 731.885, 338.037 740.574, 345.570 744.500 C 372.564 758.571, 409.064 757.949, 438 742.925 C 460.271 731.362, 478.453 707.558, 485.682 680.500 C 488.096 671.464, 488.358 668.764, 488.398 652.500 C 488.449 631.715, 486.969 624.362, 479.545 608.500 C 471.781 591.911, 459.945 578.492, 443.219 567.310 C 433.752 560.981, 434.023 562.726, 440.214 548 C 442.411 542.775, 444.656 537.375, 445.204 536 L 446.199 533.500 449.171 537 C 450.805 538.925, 454.248 543.242, 456.821 546.593 C 465.558 557.970, 521.416 627.126, 529.440 636.500 C 532.265 639.800, 538.443 647.225, 543.169 653 C 556.712 669.548, 552.819 667.917, 579.517 668.231 L 602.446 668.500 603.202 672.931 C 605.184 684.552, 612.475 701.074, 621.173 713.656 C 632.375 729.861, 651.609 743.777, 672.369 750.699 C 680.173 753.301, 681.343 753.411, 701.500 753.420 L 722.500 753.430 733.442 749.678 C 745.325 745.604, 752.134 742.077, 760.261 735.784 C 789.643 713.033, 803.804 678.760, 798.561 643.092 C 796.690 630.357, 793.734 620.839, 787.508 607.500 C 776.502 583.918, 754.358 565.176, 728.307 557.393 C 720.210 554.974, 718.009 554.758, 701 554.717 C 684.659 554.678, 681.566 554.939, 674.500 556.955 C 660.347 560.992, 663.284 563.257, 648.359 536.797 C 641.131 523.984, 634.918 512.502, 634.551 511.282 C 634.081 509.716, 635.697 505.012, 640.047 495.282 C 643.437 487.702, 646.667 480.938, 647.227 480.250 C 647.927 479.391, 651.599 479, 658.967 479 C 670.895 479, 671.562 478.686, 674.481 471.700 C 675.838 468.451, 675.856 467.623, 674.621 465.235 C 671.226 458.669, 672.651 458.892, 636.045 459.211 L 602.834 459.500 599.808 462.887 C 597.265 465.734, 596.875 466.841, 597.359 469.828 C 598.433 476.441, 600.517 477.457, 613.775 477.828 C 620.224 478.009, 625.851 478.495, 626.280 478.908 C 626.709 479.321, 625.523 482.774, 623.644 486.580 C 621.765 490.386, 619.531 495.171, 618.680 497.214 C 617.699 499.568, 616.271 501.145, 614.782 501.519 C 613.490 501.843, 594.672 501.636, 572.966 501.058 C 551.260 500.481, 516.911 500.006, 496.636 500.004 L 459.773 500 460.431 495.750 C 460.794 493.413, 462.082 487.450, 463.295 482.500 L 465.500 473.500 485.445 473.228 C 508.993 472.907, 509 472.905, 509 464.036 C 509 454.188, 510.041 454.553, 480.824 454.153 C 457.199 453.830, 455.373 453.932, 453.834 455.653 M 270.372 459.655 C 269.512 463.081, 271.018 465.418, 274.342 465.816 C 276.369 466.058, 277.254 465.536, 278.150 463.570 C 279.126 461.429, 279.020 460.679, 277.504 459.004 C 274.828 456.048, 271.194 456.379, 270.372 459.655 M 242.750 459.080 C 239.306 461.086, 240.917 467, 244.907 467 C 248.138 467, 250 465.355, 250 462.500 C 250 458.546, 246.501 456.895, 242.750 459.080 M 412.313 460.626 C 411.634 462.396, 413.978 466.936, 416.349 468.442 C 418.491 469.802, 421 467.359, 421 463.913 C 421 459.570, 413.768 456.834, 412.313 460.626 M 385.200 461.200 C 383.465 462.935, 383.723 465.437, 385.915 468.139 L 387.830 470.500 390.415 468.076 C 394.368 464.368, 393.332 460, 388.500 460 C 387.345 460, 385.860 460.540, 385.200 461.200 M 284.200 473.200 C 282.560 474.840, 282.690 478.498, 284.440 479.950 C 285.231 480.607, 287.144 480.999, 288.690 480.822 C 292.485 480.387, 293.188 475.946, 289.835 473.597 C 287.109 471.688, 285.804 471.596, 284.200 473.200 M 256.212 476.585 C 253.818 480.863, 258.494 484.673, 262.116 481.395 C 265.091 478.703, 264.189 475.567, 260.332 475.193 C 258.158 474.982, 256.865 475.419, 256.212 476.585 M 371.530 477.904 C 370.585 480.883, 372.701 484.183, 375.318 483.811 C 377.086 483.559, 377.500 482.836, 377.500 480 C 377.500 476.953, 377.155 476.460, 374.836 476.192 C 372.881 475.966, 372.001 476.421, 371.530 477.904 M 399.415 477.360 C 398.469 479.826, 399.383 483.225, 401.309 484.398 C 402.758 485.281, 403.412 485.103, 404.601 483.501 C 406.972 480.306, 406.022 476.560, 402.744 476.183 C 400.996 475.982, 399.779 476.412, 399.415 477.360 M 270.975 490.565 C 268.756 496.402, 271.039 500.214, 275.530 498.168 C 278.410 496.856, 278.788 493.569, 276.443 490.223 C 274.377 487.272, 272.175 487.410, 270.975 490.565 M 298.932 490.126 C 298.093 491.694, 298.086 492.893, 298.904 494.689 C 299.803 496.662, 300.631 497.066, 303.257 496.813 C 305.977 496.550, 306.552 496.046, 306.822 493.690 C 306.999 492.144, 306.607 490.231, 305.950 489.440 C 304.164 487.288, 300.246 487.671, 298.932 490.126 M 241.241 490.986 C 239.469 493.823, 239.706 496.424, 241.917 498.425 C 243.397 499.765, 244.281 499.920, 245.799 499.107 C 249.738 496.999, 250.116 491.830, 246.453 490.161 C 243.056 488.613, 242.686 488.671, 241.241 490.986 M 330.050 491.440 C 329.393 492.231, 329.001 494.144, 329.178 495.690 C 329.754 500.715, 337 499.685, 337 494.578 C 337 490.455, 332.539 488.441, 330.050 491.440 M 357.558 492.250 C 356.362 496.184, 356.350 498.096, 357.509 499.681 C 359.322 502.160, 364.363 500.416, 364.830 497.147 C 365.420 493.019, 358.699 488.493, 357.558 492.250 M 385.200 492.200 C 383.467 493.933, 383.724 496.440, 385.829 498.345 C 389.159 501.359, 393 499.746, 393 495.335 C 393 491.786, 387.731 489.669, 385.200 492.200 M 414.046 493.445 C 412.161 495.716, 413.154 499.451, 415.740 499.818 C 418.690 500.237, 420.969 495.873, 419.025 493.530 C 417.431 491.609, 415.595 491.578, 414.046 493.445 M 313.655 505.829 C 310.653 509.146, 312.251 513, 316.629 513 C 319.114 513, 322 510.582, 322 508.500 C 322 506.578, 319.183 504, 317.084 504 C 316.108 504, 314.565 504.823, 313.655 505.829 M 344.085 506.582 C 339.001 510.860, 340.849 515.757, 346.564 513.153 C 348.463 512.288, 349 511.279, 349 508.580 C 349 503.960, 347.787 503.467, 344.085 506.582 M 255.837 507.459 C 254.939 509.428, 255.048 510.424, 256.381 512.459 C 258.459 515.631, 259.348 515.644, 261.385 512.535 C 264.294 508.096, 263.066 505, 258.397 505 C 257.605 505, 256.453 506.107, 255.837 507.459 M 283.975 506.530 C 281.873 509.063, 284.320 513.214, 287.681 512.816 C 290.893 512.435, 293.221 507.388, 290.872 505.900 C 288.729 504.542, 285.370 504.849, 283.975 506.530 M 370.958 508.545 C 367.831 511.873, 369.222 514.500, 374.109 514.500 C 377.122 514.500, 377.537 514.171, 377.836 511.549 C 378.059 509.586, 377.577 508.164, 376.395 507.299 C 373.999 505.547, 373.712 505.613, 370.958 508.545 M 398 509.977 C 398 515.674, 405.284 517.702, 406.620 512.377 C 407.447 509.083, 405.416 507, 401.378 507 C 398.297 507, 398 507.262, 398 509.977 M 461 520.519 C 461 521.804, 487.051 554.977, 544.764 627.184 C 551.219 635.260, 556.831 641.897, 557.237 641.934 C 558.010 642.003, 558.521 640.893, 565.489 624 C 567.871 618.225, 572.371 607.425, 575.488 600 C 588.710 568.503, 607.146 521.813, 606.583 521.250 C 605.976 520.642, 524.031 519.199, 482.750 519.069 C 463.930 519.009, 461 519.205, 461 520.519 M 269.023 521.977 C 266.840 524.160, 267.240 526.523, 270.045 528.024 C 272.539 529.359, 274.901 528.243, 275.616 525.392 C 276.930 520.157, 272.920 518.080, 269.023 521.977 M 299.223 521.557 C 294.830 524.633, 297.699 530.369, 302.530 528.168 C 306.338 526.433, 305.638 520, 301.641 520 C 301.533 520, 300.445 520.701, 299.223 521.557 M 240.617 523.137 C 239.178 525.191, 239.183 525.544, 240.675 527.194 C 243.830 530.680, 248.488 528.473, 247.827 523.805 C 247.361 520.519, 242.750 520.092, 240.617 523.137 M 385.050 522.440 C 384.393 523.231, 384.001 525.144, 384.178 526.690 C 384.754 531.715, 392 530.685, 392 525.578 C 392 521.455, 387.539 519.441, 385.050 522.440 M 327.183 524.078 C 325.670 526.501, 327.084 529, 329.967 529 C 332.315 529, 335.378 525.428, 334.653 523.537 C 333.769 521.234, 328.732 521.599, 327.183 524.078 M 356.245 523.155 C 354.438 524.962, 354.684 529.942, 356.617 530.683 C 357.506 531.025, 359.419 530.887, 360.867 530.378 C 363.028 529.618, 363.500 528.829, 363.500 525.976 C 363.500 522.845, 363.202 522.471, 360.495 522.205 C 358.842 522.043, 356.930 522.470, 356.245 523.155 M 615.187 552.214 C 610.735 563.371, 604.108 579.700, 600.460 588.500 C 596.812 597.300, 593.234 606.075, 592.508 608 C 591.008 611.979, 583.982 627.757, 578.613 639.204 C 576.626 643.441, 575 647.153, 575 647.454 C 575 647.754, 581.300 648, 589 648 L 603 648 603 644.705 C 603 638.262, 608.173 621.441, 613.518 610.500 C 620.701 595.799, 629.164 584.877, 641.722 574.105 L 646.500 570.006 644.614 566.753 C 643.577 564.964, 638.720 556.525, 633.821 548 C 628.922 539.475, 624.547 532.371, 624.098 532.214 C 623.649 532.056, 619.639 541.056, 615.187 552.214 M 256.571 536.571 C 254.511 538.632, 254.586 540.316, 256.829 542.345 C 260.137 545.339, 265 543.858, 265 539.857 C 265 538.047, 261.455 535, 259.349 535 C 258.686 535, 257.436 535.707, 256.571 536.571 M 284.674 536.162 C 281.438 537.973, 283.890 545, 287.757 545 C 289.646 545, 292 541.963, 292 539.526 C 292 536.750, 287.399 534.637, 284.674 536.162 M 313.455 537.455 C 310.583 540.326, 310.440 541.297, 312.571 543.429 C 315.439 546.297, 321 545.100, 321 541.616 C 321 539.177, 318.410 535, 316.898 535 C 316.354 535, 314.805 536.105, 313.455 537.455 M 380 573.698 C 348.344 579.081, 324.882 601.338, 315.907 634.500 C 312.678 646.431, 312.447 654.255, 314.961 666.583 C 321.690 699.570, 338.059 720.092, 365 729.315 C 395.823 739.868, 431.896 729.490, 450.357 704.760 C 465.292 684.752, 470.725 665.905, 468.172 642.951 C 466.450 627.459, 461.264 615.627, 449.239 599.751 C 444.753 593.828, 429.664 581.472, 428.099 582.439 C 426.611 583.359, 417.591 607.071, 405.032 643.084 C 401.851 652.205, 398.759 660.581, 398.162 661.697 C 396.543 664.722, 391.590 666.459, 387.735 665.353 C 384.084 664.306, 380 658.973, 380 655.252 C 380 653.904, 382.029 647.730, 384.509 641.532 C 386.988 635.334, 390.573 625.816, 392.474 620.381 C 394.375 614.947, 398.646 603.084, 401.965 594.020 C 405.284 584.956, 408 576.792, 408 575.877 C 408 574.962, 407.288 573.941, 406.418 573.607 C 404.688 572.943, 384.020 573.014, 380 573.698 M 687.350 576.018 C 670.737 578.971, 670.670 575.385, 687.987 609.779 C 696.218 626.126, 705.036 643.440, 707.583 648.255 C 712.718 657.960, 712.778 659.469, 708.252 664.876 L 705.426 668.253 665.213 668.069 L 625 667.886 625 670.432 C 625 674.003, 629.616 685.229, 634.434 693.374 C 641.744 705.733, 655.250 718.519, 667.500 724.677 C 678.346 730.129, 684.682 731.407, 700.500 731.335 C 713.640 731.275, 716.504 730.952, 723.596 728.732 C 733.642 725.587, 738.914 722.935, 746.120 717.400 C 756.504 709.424, 766.873 696.128, 772.328 683.792 C 785.308 654.444, 775.176 612.980, 750.095 592.803 C 736.528 581.889, 730.750 579.136, 714.715 575.946 C 703.131 573.642, 700.681 573.649, 687.350 576.018 M 651.447 593.143 C 644.529 599.503, 637.362 609.378, 633.045 618.500 C 627.111 631.040, 622.819 646.152, 624.838 647.400 C 626.009 648.123, 685.058 648.276, 685.777 647.557 C 686.298 647.035, 658.659 591.440, 656.985 589.643 C 656.546 589.172, 654.054 590.747, 651.447 593.143" stroke="none" fill="#056c27" fill-rule="evenodd"/></svg>